<svg width="54" height="51" viewBox="0 0 54 51" fill="none" xmlns="http://www.w3.org/2000/svg">
<g id="Group 7510">
<path id="Rectangle 210" d="M0.25 6C0.25 2.82436 2.82436 0.25 6 0.25H27H48C51.1756 0.25 53.75 2.82436 53.75 6V45C53.75 48.1756 51.1756 50.75 48 50.75H6C2.82436 50.75 0.25 48.1756 0.25 45V6Z" stroke="#E1E5E4" stroke-width="0.5"/>
<g id="Group 7508">
<path id="Vector" d="M34 16H20C18.8954 16 18 16.8954 18 18V32C18 33.1046 18.8954 34 20 34H34C35.1046 34 36 33.1046 36 32V18C36 16.8954 35.1046 16 34 16Z" stroke="black" stroke-width="2" stroke-linecap="round" stroke-linejoin="round"/>
<path id="Vector_2" d="M31.0007 14V18" stroke="black" stroke-width="2" stroke-linecap="round" stroke-linejoin="round"/>
<path id="Vector_3" d="M22.9993 14V18" stroke="black" stroke-width="2" stroke-linecap="round" stroke-linejoin="round"/>
<path id="Vector_4" d="M18 22H36" stroke="black" stroke-width="2" stroke-linecap="round" stroke-linejoin="round"/>
</g>
</g>
</svg>
