<svg width="22" height="22" viewBox="0 0 22 22" fill="none" xmlns="http://www.w3.org/2000/svg">
<g id="Group 7475">
<path id="Vector" d="M6.5348 20.6389L4.26575 15.2654C4.21279 15.14 4.26333 14.9949 4.38372 14.93L14.2172 9.57563C14.318 9.52109 14.2536 9.36858 14.1443 9.40278L3.44917 12.7168C3.31876 12.7579 3.17949 12.6929 3.12654 12.5675L0.857488 7.19399C0.781636 7.01436 0.919649 6.81631 1.11428 6.82797L17.8692 7.67442C18.0895 7.68526 18.2004 7.94792 18.0546 8.11333L6.9787 20.7117C6.84893 20.8584 6.61075 20.8192 6.5349 20.6395L6.5348 20.6389Z" fill="white"/>
<path id="Vector_2" d="M6.70428 20.5669L6.24846 19.4875L5.31033 17.2658L4.54824 15.461L4.46023 15.2526C4.44592 15.2187 4.42053 15.1775 4.42942 15.1418C4.43386 15.1239 4.44429 15.1156 4.45356 15.0997C4.45551 15.0948 4.50688 15.0652 4.45453 15.0972L4.45962 15.0951C4.46738 15.0898 4.47415 15.087 4.48263 15.0834C4.51848 15.0643 4.55264 15.0458 4.58849 15.0267C4.94555 14.832 5.30262 14.6373 5.65972 14.4426C6.26874 14.1115 6.87704 13.7788 7.48602 13.4478C8.20865 13.0548 8.93298 12.661 9.65486 12.2664C10.3613 11.8822 11.0676 11.4981 11.7733 11.1122C12.3303 10.8092 12.8855 10.5068 13.4424 10.2038C13.715 10.0547 13.9899 9.90668 14.2624 9.75766C14.3324 9.72011 14.3979 9.6765 14.4309 9.59866C14.4943 9.4461 14.4054 9.26399 14.2457 9.22158C14.1832 9.20603 14.1291 9.21492 14.0686 9.23247C13.9922 9.25477 13.9171 9.28045 13.8424 9.30203C13.4117 9.43597 12.9803 9.56821 12.5497 9.70213C11.8626 9.91439 11.1762 10.1284 10.4907 10.3399C9.69763 10.585 8.90695 10.831 8.11388 11.076C7.35854 11.3111 6.60415 11.5438 5.8488 11.7789C5.27345 11.9579 4.69739 12.1353 4.12372 12.3136C3.87815 12.3894 3.6335 12.4767 3.38533 12.5416L3.38194 12.543C3.40879 12.5356 3.41067 12.5448 3.37953 12.542C3.35418 12.5387 3.33223 12.534 3.31373 12.5139C3.30293 12.5025 3.30202 12.4909 3.2946 12.478C3.27359 12.433 3.25525 12.3848 3.23592 12.3391L2.95685 11.6782L2.05164 9.53445L1.22228 7.57037C1.16145 7.42633 1.09822 7.2813 1.03909 7.13655C1.00429 7.0494 1.03762 7.00538 1.12988 7.00636C1.36295 7.00978 1.59907 7.02988 1.8316 7.04151C2.31723 7.06608 2.80115 7.09137 3.28674 7.11595C3.95805 7.14997 4.62936 7.184 5.30069 7.218C6.08623 7.25771 6.87174 7.29742 7.65728 7.33712C8.49206 7.37999 9.32614 7.42118 10.1609 7.46403C10.9793 7.50582 11.7994 7.54694 12.6178 7.58874C13.3482 7.62573 14.077 7.66344 14.8068 7.69873C15.3844 7.72838 15.9596 7.75707 16.5372 7.78672C16.8922 7.80456 17.2496 7.82337 17.6046 7.84121C17.6784 7.84595 17.7533 7.84828 17.8272 7.85302C17.8337 7.85427 17.8395 7.85381 17.8453 7.85336C17.847 7.85265 17.8477 7.85434 17.8494 7.85363C17.8781 7.85547 17.8998 7.86428 17.9023 7.86526C17.9521 7.89814 17.9601 7.94069 17.9056 8.00561C17.7797 8.15663 17.6468 8.3006 17.517 8.44726C17.2164 8.78985 16.9141 9.13314 16.6135 9.47577C16.1848 9.9643 15.7554 10.4511 15.3267 10.9397C14.8127 11.5241 14.3004 12.1078 13.7864 12.6923C13.236 13.3181 12.6872 13.9432 12.1368 14.569C11.5934 15.1878 11.0493 15.8049 10.5059 16.4238C10.0106 16.9864 9.51702 17.5482 9.02176 18.1108C8.62516 18.5618 8.22684 19.0135 7.83096 19.4662C7.57313 19.7588 7.31697 20.0507 7.05915 20.3433C6.99863 20.4128 6.9374 20.4806 6.87688 20.55C6.8645 20.5633 6.85354 20.5799 6.83945 20.5938C6.79408 20.6329 6.73277 20.6249 6.70433 20.567C6.60257 20.3544 6.26292 20.4958 6.36539 20.7101C6.51133 21.0179 6.89634 21.069 7.12492 20.8207C7.13294 20.8113 7.14096 20.8019 7.1497 20.7942C7.20487 20.731 7.26173 20.6671 7.3169 20.6038C7.56671 20.3206 7.81581 20.0357 8.06395 19.7532C8.4579 19.3054 8.85013 18.8582 9.24408 18.4103C9.73668 17.8508 10.2286 17.2897 10.7212 16.7302C11.2689 16.1076 11.8177 15.4825 12.3654 14.8598C12.9212 14.2278 13.478 13.5933 14.0338 12.9613C14.5504 12.3737 15.0671 11.7861 15.5837 11.1985C16.0185 10.7054 16.4508 10.2114 16.8856 9.71831C17.1916 9.36946 17.4982 9.0223 17.8042 8.67347C17.9349 8.52441 18.0695 8.37972 18.1955 8.22871C18.4276 7.95097 18.2476 7.51983 17.8859 7.49084C17.8277 7.48545 17.7692 7.48418 17.7101 7.4812C17.3756 7.46468 17.0412 7.44817 16.706 7.42993C16.1424 7.40035 15.5778 7.37316 15.0142 7.34359C14.2862 7.30757 13.5574 7.26987 12.8293 7.23386C12.0109 7.19207 11.1933 7.15193 10.3749 7.11014C9.53023 7.06745 8.68556 7.02478 7.84257 6.98141C7.04472 6.94091 6.24519 6.90113 5.44734 6.86064C4.76611 6.82681 4.0866 6.79227 3.40468 6.75672C2.90674 6.73136 2.41051 6.70529 1.91328 6.6816C1.66843 6.66918 1.42186 6.65748 1.17702 6.64506C1.16301 6.64498 1.14998 6.6425 1.13597 6.64242C0.840608 6.63336 0.590679 6.89265 0.666833 7.19595C0.696852 7.31906 0.76095 7.43776 0.810321 7.55468L1.58815 9.39673L2.52485 11.615L2.84685 12.3776C2.90267 12.5098 2.95129 12.6769 3.05436 12.7791C3.18602 12.9113 3.36103 12.9332 3.53328 12.8824C3.56352 12.8737 3.59474 12.8625 3.62498 12.8537C3.76458 12.8107 3.90418 12.7677 4.04378 12.7248C4.57196 12.5616 5.10109 12.3961 5.62924 12.233C6.36934 12.0044 7.10702 11.7747 7.84716 11.5461C8.65212 11.296 9.45607 11.0484 10.261 10.7983C10.9794 10.5749 11.6984 10.3531 12.4151 10.1304C12.897 9.98076 13.3773 9.83188 13.8592 9.68229C13.9669 9.64881 14.0729 9.61604 14.1805 9.58256C14.1914 9.57996 14.1999 9.57638 14.2108 9.57378C14.2125 9.57307 14.2149 9.57405 14.2159 9.57164C14.1674 9.60809 14.074 9.54769 14.0854 9.48495C14.0949 9.42703 14.1901 9.38285 14.1089 9.42711C13.8184 9.5857 13.528 9.74429 13.2368 9.90118C12.6637 10.2131 12.0888 10.5257 11.5156 10.8376C10.7998 11.2278 10.084 11.6179 9.36738 12.0064C8.63967 12.4015 7.91438 12.7976 7.18667 13.1928C6.58952 13.5188 5.98996 13.8439 5.39281 14.1699C5.06142 14.3498 4.73075 14.5313 4.39934 14.7112C4.37365 14.726 4.34726 14.7392 4.32327 14.7533C4.14884 14.8509 4.03168 15.0322 4.07118 15.2392C4.09585 15.3685 4.16763 15.4959 4.21843 15.6163L4.99626 17.4583L5.93653 19.685L6.36874 20.7086C6.45766 20.9286 6.79658 20.7855 6.70427 20.5669L6.70428 20.5669Z" fill="white"/>
</g>
</svg>
