<svg width="80" height="33" viewBox="0 0 80 33" fill="none" xmlns="http://www.w3.org/2000/svg">
<g id="svgg">
<path id="path0" fill-rule="evenodd" clip-rule="evenodd" d="M39.84 0.10786C39.3073 0.153125 38.371 0.703074 38.3628 0.975598C38.3621 0.998464 38.3071 1.12679 38.2408 1.26049C38.1743 1.39395 38.1199 1.54281 38.1199 1.59088C38.1199 1.63894 38.0917 1.75841 38.0572 1.85617C37.9792 2.07643 38.0138 2.8373 38.1052 2.91314C38.1358 2.93833 38.1608 3.00017 38.1608 3.05033C38.1608 3.1005 38.1946 3.18519 38.2361 3.23839C38.2774 3.29182 38.3435 3.40405 38.3829 3.48758C38.4622 3.65674 38.7187 3.92507 38.801 3.92507C38.83 3.92507 38.9314 3.9967 39.0264 4.0842C39.1396 4.18849 39.2546 4.25289 39.361 4.27132C39.4501 4.28696 39.6016 4.32522 39.6972 4.35625C39.9751 4.44678 40.6324 4.43209 40.7838 4.33176C40.8508 4.28742 40.9679 4.25079 41.0437 4.25079C41.3223 4.25009 42.0349 3.63108 42.1674 3.27456C42.3471 2.79157 42.3931 2.25586 42.3049 1.67604C42.2496 1.31159 42.2654 1.34892 42.0037 0.974198C41.7057 0.547212 41.0958 0.163858 40.6457 0.12046C40.5204 0.10856 40.372 0.0936271 40.316 0.0873273C40.2602 0.0812608 40.0458 0.0903606 39.84 0.10786ZM57.9785 6.83231C57.9314 6.86544 57.8418 6.97977 57.78 7.08617C57.7179 7.1928 57.542 7.41492 57.3887 7.57988C57.2354 7.74461 57.0261 8.00477 56.9232 8.15806C56.6845 8.51365 56.461 8.57315 56.1829 8.35452C56.1285 8.31159 56.0601 8.27636 56.0314 8.27636C56.0025 8.27636 55.9246 8.23063 55.8581 8.17486C55.7918 8.11887 55.7034 8.07267 55.6618 8.0722C55.6203 8.07173 55.5407 8.03557 55.4847 7.9917C55.4287 7.94807 55.3641 7.9119 55.3408 7.91144C55.3177 7.91097 55.2269 7.87387 55.1392 7.82907C55.0515 7.78451 54.9392 7.74788 54.8898 7.74788C54.8403 7.74788 54.7481 7.72198 54.6849 7.69048C54.4014 7.54932 54.1408 7.46345 53.858 7.41819C53.6902 7.39136 53.5358 7.35379 53.5145 7.33489C53.4933 7.31599 53.4163 7.30036 53.3435 7.30036C53.2707 7.30036 53.1692 7.28356 53.1179 7.26303C52.6354 7.06937 50.3457 7.15546 49.5081 7.39859C49.3858 7.43405 49.2484 7.46322 49.2031 7.46345C49.1576 7.46345 49.0655 7.50008 48.9983 7.54442C48.9313 7.58898 48.8303 7.62538 48.7741 7.62561C48.7178 7.62561 48.6035 7.66248 48.5202 7.70705C48.4367 7.75184 48.3417 7.78848 48.3093 7.78848C48.2768 7.78848 48.1644 7.83421 48.0591 7.89021C47.9539 7.94597 47.8412 7.9917 47.8088 7.9917C47.7761 7.9917 47.6676 8.047 47.5675 8.11467C47.4674 8.1821 47.3277 8.26446 47.2567 8.29736C47.078 8.38042 46.3031 8.89747 46.105 9.06593C45.8904 9.24816 44.7081 10.4309 44.7081 10.4631C44.7081 10.5098 44.4743 10.828 44.3129 11.0011C44.2398 11.0795 44.1799 11.1647 44.1796 11.1906C44.1792 11.2517 43.9802 11.6442 43.8864 11.769C43.8462 11.8224 43.8133 11.898 43.8133 11.937C43.8133 11.976 43.786 12.0306 43.7524 12.0586C43.7188 12.0863 43.6913 12.1409 43.6913 12.1799C43.6913 12.2189 43.6586 12.2945 43.6187 12.3479C43.5371 12.4571 43.3254 12.965 43.3254 13.0523C43.3254 13.0836 43.2991 13.161 43.2671 13.2243C43.2351 13.2877 43.1861 13.4492 43.1586 13.5836C43.1311 13.7177 43.0865 13.8731 43.0599 13.9291C43.0331 13.9851 42.9992 14.1667 42.9843 14.3328C42.9696 14.4989 42.9283 14.7348 42.8929 14.8571C42.7991 15.1798 42.8254 16.9747 42.9255 17.0874C42.9722 17.1399 42.9962 17.2608 43.0062 17.4934C43.0165 17.7288 43.0401 17.8467 43.0881 17.9001C43.1252 17.9416 43.1682 18.0618 43.1838 18.1673C43.1994 18.273 43.2377 18.3803 43.2687 18.4062C43.3 18.4321 43.3254 18.507 43.3254 18.5728C43.3254 18.6867 43.5434 19.1948 43.6099 19.2361C43.6274 19.2469 43.6542 19.3234 43.6698 19.4062C43.6852 19.4891 43.7324 19.6221 43.7746 19.7016C43.8166 19.7812 43.8602 19.892 43.8717 19.9478C43.8831 20.0038 43.9764 20.1501 44.0791 20.2733C44.1817 20.3962 44.3322 20.5976 44.4134 20.7206C44.748 21.2278 45.8594 22.3447 46.3346 22.6516C46.4354 22.7167 46.575 22.8226 46.645 22.887C46.8125 23.0414 48.355 23.8112 48.4969 23.8112C48.5575 23.8112 48.6173 23.8275 48.6296 23.8473C48.642 23.8672 48.701 23.8959 48.761 23.9108C48.821 23.926 48.9124 23.9715 48.964 24.0123C49.0212 24.0571 49.1667 24.0977 49.3333 24.1157C49.4845 24.1318 49.639 24.1612 49.6766 24.1812C49.7575 24.2244 50.3588 24.3278 50.8691 24.3861C51.2853 24.4339 52.724 24.4027 52.8344 24.3436C52.8743 24.3224 53.1344 24.2839 53.4128 24.2585C53.7082 24.2312 53.9446 24.1896 53.98 24.1586C54.0136 24.1294 54.1634 24.0928 54.313 24.0774C54.4681 24.0613 54.6058 24.0242 54.6331 23.9913C54.6597 23.9593 54.7022 23.9332 54.7278 23.9332C54.7535 23.9332 54.8401 23.898 54.9206 23.8548C55.0013 23.8117 55.138 23.7629 55.2248 23.7468C55.3678 23.72 55.6726 23.5809 55.7855 23.4908C55.8102 23.4712 55.8735 23.4418 55.9262 23.4257C55.9787 23.4096 56.0811 23.3571 56.1535 23.3088C56.2258 23.2608 56.3896 23.1574 56.5172 23.0792C56.7099 22.9612 57.1173 22.6539 57.5009 22.3373C57.8276 22.0678 58.7774 21.0976 58.7991 21.0113C58.8136 20.9534 58.8974 20.8232 58.9856 20.7217C59.0735 20.6205 59.1774 20.501 59.2159 20.4567C59.2889 20.3729 59.6316 19.7091 59.6323 19.6503C59.6326 19.6321 59.6785 19.5572 59.7345 19.4837C59.7903 19.4104 59.836 19.3243 59.836 19.2921C59.836 19.2602 59.861 19.1979 59.8916 19.1538C59.9221 19.1097 59.9613 19.0278 59.9786 18.9718C59.9959 18.916 60.0435 18.8271 60.0845 18.7746C60.1256 18.7219 60.1706 18.6122 60.1844 18.5306C60.1979 18.4489 60.2355 18.3238 60.2674 18.2524C60.3643 18.0366 60.4686 17.4993 60.5185 16.9589C60.5351 16.7799 60.5628 16.6112 60.5801 16.5839C60.6261 16.5125 60.6198 15.2052 60.5733 15.1182C60.5516 15.0778 60.512 14.8167 60.4847 14.5379C60.455 14.2339 60.413 14.0052 60.3799 13.9667C60.3493 13.9315 60.313 13.7852 60.299 13.6415C60.2852 13.4977 60.2514 13.3435 60.2238 13.2989C60.1963 13.2541 60.1611 13.1496 60.1457 13.0665C60.1303 12.9837 60.0087 12.7025 59.8752 12.4417C59.7418 12.1811 59.6323 11.9379 59.6316 11.9013C59.6305 11.8413 59.458 11.5534 59.2261 11.2249C58.8001 10.621 58.8003 10.6229 59.2037 10.1852C59.5161 9.84617 59.6582 9.67771 59.836 9.43482C59.9144 9.32773 60.0649 9.1581 60.1706 9.05777C60.5668 8.68141 60.5278 8.56172 59.8587 8.09833C59.7009 7.98914 59.5077 7.84121 59.4293 7.76958C59.3512 7.69818 59.1865 7.57405 59.0635 7.49402C58.9405 7.41399 58.7758 7.28123 58.6974 7.19909C58.3969 6.8841 58.1122 6.73874 57.9785 6.83231ZM69.4946 6.97604C69.338 6.99167 69.1254 7.03273 69.0223 7.0675C68.9189 7.10226 68.7311 7.14356 68.6049 7.1592C68.4784 7.17506 68.365 7.20423 68.3529 7.22383C68.3408 7.24366 68.2715 7.25976 68.1994 7.25976C68.127 7.25976 67.9961 7.29639 67.9084 7.34119C67.8207 7.38576 67.7098 7.42239 67.662 7.42239C67.6139 7.42239 67.4889 7.46812 67.3837 7.52412C67.2784 7.58012 67.1522 7.62585 67.1032 7.62608C67.0024 7.62608 66.4403 7.90047 66.2765 8.0295C66.2175 8.07593 66.1473 8.11373 66.1204 8.11373C66.0936 8.11373 65.9671 8.187 65.8393 8.27636C65.7116 8.36596 65.598 8.43922 65.587 8.43922C65.5761 8.43922 65.4907 8.51225 65.3976 8.60185C65.3045 8.69121 65.2154 8.76448 65.1993 8.76448C65.1834 8.76448 65.0917 8.83774 64.9958 8.9271C64.8999 9.0167 64.7998 9.08973 64.7737 9.08973C64.7473 9.08973 64.6747 9.15833 64.6122 9.24233C64.4668 9.43739 64.2291 9.71481 63.9323 10.0356C63.803 10.1752 63.6864 10.3352 63.6728 10.3912C63.6593 10.447 63.6007 10.5438 63.5426 10.6063C63.4843 10.6689 63.3999 10.7916 63.3546 10.8789C63.0594 11.4498 62.9675 11.6495 62.9675 11.7214C62.9675 11.7662 62.9033 11.9258 62.8252 12.0761C62.7468 12.2261 62.6828 12.3799 62.6828 12.4172C62.6828 12.4548 62.6467 12.5952 62.6028 12.7294C62.4931 13.064 62.3956 13.4875 62.3501 13.8274C62.3291 13.984 62.2923 14.2311 62.2682 14.3764C62.1915 14.8438 62.181 16.6313 62.2545 16.7731C62.2888 16.8394 62.3168 16.9873 62.3168 17.1014C62.3168 17.3394 62.3958 17.8742 62.4397 17.9349C62.456 17.9573 62.4824 18.0854 62.4985 18.2195C62.5144 18.3537 62.5603 18.5184 62.6005 18.5854C62.6406 18.6526 62.6856 18.8105 62.7008 18.9365C62.7178 19.0789 62.789 19.2868 62.8884 19.4849C62.9766 19.6603 63.0487 19.8353 63.0487 19.8736C63.0487 19.9118 63.0657 19.9536 63.0865 19.9664C63.1073 19.979 63.1462 20.0579 63.1731 20.1417C63.1999 20.2252 63.2498 20.3258 63.2841 20.365C63.3527 20.4434 63.3912 20.5099 63.5606 20.8426C63.6234 20.9655 63.7496 21.1485 63.8411 21.2493C63.9328 21.3498 64.055 21.5055 64.1129 21.5948C64.2625 21.8258 64.9057 22.4745 65.1227 22.6133C65.2235 22.6777 65.392 22.8088 65.4972 22.9047C65.6024 23.0006 65.7154 23.0792 65.7483 23.0792C65.7809 23.0792 65.867 23.1294 65.9396 23.191C66.0119 23.2526 66.1461 23.3422 66.2376 23.3903C66.5719 23.5664 66.914 23.7251 67.0638 23.7739C67.148 23.8012 67.2752 23.8485 67.3461 23.8789C67.417 23.9092 67.5323 23.9453 67.6025 23.9593C67.6725 23.9733 67.7969 24.0191 67.8785 24.0606C67.9604 24.1024 68.0797 24.1364 68.1434 24.1364C68.2073 24.1364 68.2934 24.1546 68.3349 24.177C68.4033 24.2134 68.6282 24.2561 69.4334 24.3856C69.8721 24.4561 71.8292 24.4162 71.9547 24.3341C72.0107 24.2977 72.1722 24.2582 72.3136 24.2463C72.455 24.2347 72.6015 24.198 72.6391 24.1649C72.6764 24.1318 72.7802 24.0954 72.8698 24.0839C73.2502 24.0352 74.1289 23.6308 74.6184 23.2792C74.7304 23.1989 74.8676 23.1093 74.9236 23.0804C75.0939 22.992 76.0867 21.9705 76.1322 21.8368C76.292 21.3664 76.5501 21.4152 76.5501 21.9159C76.5501 22.089 76.5688 22.2652 76.5914 22.3076C76.614 22.3499 76.6427 22.701 76.6551 23.0876C76.6672 23.4745 76.6856 23.832 76.6959 23.8823L76.7143 23.9738H78.3192H79.924L79.9459 23.8823C79.958 23.832 79.9632 20.085 79.9569 15.5559L79.9459 7.32089H78.2989H76.6518L76.6233 7.84937C76.5135 9.88421 76.4971 9.98057 76.3109 9.68961C76.0477 9.27919 75.9532 9.1574 75.6303 8.81534C75.4353 8.60838 75.2598 8.43922 75.2402 8.43922C75.1912 8.43922 74.9772 8.28569 74.7719 8.1037C74.6774 8.0197 74.5736 7.9511 74.5412 7.9511C74.509 7.9511 74.428 7.90537 74.3615 7.84937C74.295 7.79361 74.2096 7.74788 74.1718 7.74788C74.1338 7.74788 74.0561 7.71124 73.9991 7.66645C73.9424 7.62165 73.8734 7.58502 73.8461 7.58502C73.8188 7.58502 73.6734 7.52108 73.5234 7.44269C73.3731 7.36452 73.2079 7.30036 73.1566 7.30036C73.105 7.30036 72.9919 7.27026 72.9053 7.23339C72.7455 7.16526 72.1925 7.0458 71.7109 6.97557C71.4134 6.9324 69.9302 6.93264 69.4946 6.97604ZM38.5166 7.30362C38.4492 7.34306 38.4454 7.79361 38.4454 15.862V24.3789L38.5369 24.4013C38.5873 24.4134 39.3787 24.4183 40.2957 24.4122L41.963 24.4008L41.9733 15.8853C41.9808 9.62498 41.9714 7.35542 41.9378 7.31482C41.8804 7.24576 38.6344 7.23503 38.5166 7.30362ZM23.1411 7.32742C23.077 7.39182 23.1113 10.3691 23.1773 10.4633L23.2405 10.5539H27.2187C31.7095 10.5539 31.4163 10.5312 31.1505 10.8555C31.0695 10.9542 31.0033 11.0539 31.0033 11.0767C31.0033 11.0996 30.9302 11.2027 30.8406 11.3061C30.7513 11.4095 30.678 11.5208 30.678 11.5534C30.678 11.5863 30.6076 11.6904 30.5215 11.7849C30.4356 11.8794 30.3173 12.0394 30.2592 12.1402C30.2009 12.241 30.0891 12.3857 30.0107 12.4615C29.9325 12.5374 29.8574 12.6493 29.8441 12.7102C29.8308 12.7711 29.7732 12.8645 29.7163 12.9174C29.6591 12.9706 29.5469 13.1148 29.4664 13.2378C29.3861 13.3608 29.2505 13.5388 29.1656 13.6335C29.0804 13.728 29.0107 13.8337 29.0107 13.8682C29.0107 13.9028 28.9402 14.0082 28.8541 14.103C28.7682 14.1975 28.6476 14.3615 28.5863 14.4677C28.5249 14.5736 28.419 14.7199 28.3508 14.7929C28.2825 14.8657 28.1947 14.9987 28.1558 15.0881C28.1166 15.1777 28.0277 15.3046 27.9579 15.3702C27.8884 15.436 27.8314 15.5053 27.8314 15.5244C27.8314 15.572 27.5375 15.9644 27.4301 16.0603C27.3823 16.1028 27.3433 16.1705 27.3433 16.2104C27.3433 16.2503 27.2747 16.3651 27.1907 16.4652C27.107 16.5655 26.9926 16.7148 26.9366 16.7967C26.8806 16.8786 26.7572 17.0361 26.6623 17.1467C26.5671 17.2573 26.4894 17.3805 26.4894 17.4202C26.4894 17.4601 26.4329 17.5464 26.3641 17.612C26.295 17.6778 26.2131 17.7923 26.1818 17.8665C26.1506 17.9409 26.0239 18.1169 25.9004 18.2576C25.777 18.398 25.676 18.5329 25.676 18.5569C25.676 18.5812 25.6027 18.6855 25.5134 18.7888C25.4238 18.8922 25.3507 19.003 25.3507 19.0352C25.3507 19.0672 25.2905 19.1622 25.217 19.2462C25.0332 19.4564 24.8626 19.6911 24.8626 19.7343C24.8626 19.7539 24.8054 19.8237 24.7354 19.8894C24.6654 19.955 24.5749 20.0826 24.5341 20.1727C24.4935 20.2628 24.4118 20.3815 24.3526 20.4368C24.2933 20.4924 24.2114 20.6016 24.1706 20.6797C24.1297 20.7581 24.0035 20.9366 23.8899 21.0766C23.7762 21.2164 23.6834 21.3592 23.6834 21.3935C23.6834 21.4278 23.601 21.544 23.5002 21.6515C23.3997 21.7593 23.3173 21.8599 23.3173 21.8753C23.3173 21.917 23.1535 22.1452 23.0074 22.3065C22.9367 22.3849 22.8653 22.4945 22.8488 22.5505C22.8322 22.6065 22.7475 22.73 22.6605 22.8252L22.5021 22.998L22.5133 23.6994L22.5242 24.4008L23.9354 24.4115C25.1911 24.4211 25.3524 24.415 25.3995 24.3569C25.4284 24.3208 25.5278 24.2062 25.62 24.1021C25.7121 23.9981 25.801 23.8672 25.8176 23.8112C25.8339 23.7552 25.906 23.6455 25.9774 23.5671C26.0491 23.489 26.1608 23.3424 26.2259 23.2419C26.291 23.1413 26.4135 22.9815 26.4982 22.887C26.5827 22.7923 26.652 22.6933 26.652 22.6667C26.652 22.6401 26.679 22.5893 26.7119 22.554C26.9408 22.3079 27.1401 22.0507 27.1401 22.0015C27.1401 21.9527 27.2978 21.7477 27.5629 21.4525C27.593 21.4189 27.6296 21.3526 27.6443 21.305C27.659 21.2574 27.733 21.1548 27.8086 21.0768C27.8844 20.9989 28.0025 20.8356 28.0711 20.714C28.1397 20.5925 28.2475 20.4546 28.3107 20.4079C28.3744 20.3608 28.4467 20.253 28.4729 20.1659C28.5023 20.0679 28.6045 19.9251 28.7449 19.7866C28.8688 19.6643 28.9701 19.5308 28.9701 19.49C28.9701 19.4492 29.0524 19.3276 29.153 19.22C29.2536 19.1125 29.3359 19.0119 29.3359 18.9965C29.3359 18.9547 29.5 18.7266 29.6458 18.5651C29.7165 18.4869 29.7876 18.377 29.8035 18.3213C29.8196 18.2653 29.901 18.1463 29.9848 18.0569C30.0683 17.9673 30.1796 17.821 30.2317 17.7314C30.2839 17.6421 30.3964 17.4916 30.482 17.3968C30.5674 17.3023 30.6374 17.1983 30.6374 17.1654C30.6374 17.1327 30.7468 16.9813 30.8805 16.8289C31.0145 16.6768 31.1241 16.5289 31.1246 16.5004C31.1251 16.4719 31.1962 16.3714 31.2828 16.2766C31.3694 16.1821 31.4541 16.0592 31.4711 16.0032C31.4881 15.9472 31.5682 15.8247 31.6491 15.7306C31.9298 15.4049 31.9793 15.3394 31.9793 15.2932C31.9793 15.2677 32.0525 15.1707 32.1419 15.0776C32.2315 14.9845 32.3048 14.8874 32.3048 14.8617C32.3048 14.8113 32.4326 14.6445 32.6475 14.4145C32.722 14.3347 32.7957 14.211 32.8113 14.1398C32.8269 14.0689 32.8731 13.9872 32.914 13.9588C32.9546 13.9301 33.0719 13.7814 33.1746 13.6284C33.2773 13.4753 33.4254 13.2791 33.5041 13.1923C33.5825 13.1053 33.6466 13.0063 33.6466 12.9725C33.6466 12.9384 33.7171 12.8332 33.8032 12.7387C33.8893 12.6442 34.0073 12.4844 34.0657 12.3834C34.124 12.2826 34.2355 12.1379 34.3139 12.0621C34.3923 11.9862 34.467 11.8749 34.4803 11.8147C34.4936 11.7548 34.5767 11.6349 34.6651 11.5483C34.7535 11.462 34.8261 11.3759 34.8261 11.3572C34.8261 11.3096 34.9812 11.0935 35.1616 10.8903C35.2454 10.7956 35.314 10.685 35.314 10.6439C35.314 10.6031 35.3788 10.507 35.4582 10.43C35.5375 10.3532 35.6502 10.2076 35.7085 10.1068C35.7669 10.006 35.8849 9.84618 35.971 9.75144C36.0569 9.65695 36.1273 9.55242 36.1273 9.51905C36.1273 9.48569 36.2088 9.36692 36.3084 9.25469C36.5326 9.00224 36.5403 8.9586 36.5256 8.05283L36.5137 7.32089L29.8411 7.31062C26.1711 7.30479 23.1563 7.31249 23.1411 7.32742ZM72.1659 10.1441C72.3155 10.1458 72.4478 10.163 72.4596 10.1822C72.4715 10.2015 72.5689 10.24 72.6755 10.268C72.7823 10.2958 72.9247 10.3427 72.9919 10.3721C73.0588 10.4015 73.1687 10.4381 73.2357 10.4538C73.4198 10.496 73.7681 10.6712 73.8514 10.7634C73.8918 10.8082 74.0201 10.8896 74.1361 10.9447C74.3193 11.0312 74.5241 11.2032 75.0659 11.7242C75.2528 11.9041 75.4019 12.0957 75.5634 12.3635C75.6443 12.4977 75.7439 12.6512 75.7848 12.7044C75.8254 12.7578 75.8587 12.833 75.8587 12.8715C75.8587 12.91 75.932 13.0859 76.0214 13.2623C76.1107 13.4389 76.1959 13.6475 76.2104 13.7259C76.2251 13.8041 76.2598 13.9046 76.2876 13.9494C76.3154 13.9942 76.3506 14.1405 76.366 14.2749C76.3812 14.4091 76.4197 14.5972 76.4516 14.693C76.604 15.152 76.4673 16.9547 76.2421 17.4531C76.2101 17.5235 76.1842 17.6113 76.1842 17.6484C76.1842 17.6852 76.1488 17.783 76.1056 17.8658C76.0624 17.9484 75.9406 18.1992 75.8352 18.4228C75.7295 18.6465 75.5752 18.9118 75.4922 19.0126C75.4091 19.1132 75.3293 19.2336 75.3149 19.2798C75.2824 19.3841 74.3624 20.2733 74.2873 20.2733C74.2728 20.2733 74.1632 20.3381 74.0437 20.4175C73.924 20.4968 73.7665 20.5885 73.6937 20.6214C73.6207 20.6543 73.5336 20.6977 73.5 20.7182C73.3526 20.808 73.0542 20.9168 72.8292 20.9627C72.6948 20.99 72.5485 21.033 72.5037 21.0579C72.4592 21.0831 72.2121 21.1265 71.9547 21.1548C71.6976 21.1828 71.3957 21.2201 71.2837 21.2376C71.1719 21.2551 70.9615 21.2565 70.8161 21.2404C70.0053 21.151 69.8606 21.1307 69.7829 21.0957C69.6716 21.0453 69.4488 20.9784 69.2708 20.942C69.1926 20.9261 69.0648 20.8787 68.9868 20.837C68.9087 20.7952 68.8242 20.7612 68.7985 20.7612C68.7729 20.7612 68.7309 20.7355 68.7047 20.7042C68.6788 20.6727 68.6079 20.6347 68.5472 20.6198C68.4866 20.6046 68.4096 20.5682 68.3762 20.5393C68.3426 20.5101 68.2733 20.4735 68.2222 20.4578C67.9392 20.3715 67.4522 19.9606 66.871 19.3176C66.5847 19.0007 65.9767 17.9337 65.9767 17.748C65.9767 17.7055 65.9426 17.5655 65.9009 17.4367C65.8234 17.1985 65.7574 16.9164 65.6932 16.5522C65.5735 15.8718 65.7046 14.1793 65.9044 13.8274C65.9298 13.7828 65.9646 13.6589 65.9816 13.5526C65.9989 13.4459 66.0397 13.3318 66.0728 13.2987C66.1057 13.2656 66.1447 13.1848 66.1592 13.119C66.1736 13.0532 66.2117 12.9776 66.2436 12.951C66.2758 12.9244 66.3022 12.8792 66.3022 12.8507C66.3022 12.7294 66.57 12.305 66.7931 12.0726C66.9256 11.9344 67.0341 11.8042 67.0341 11.783C67.0341 11.7328 67.27 11.4869 67.4002 11.4018C67.456 11.3651 67.6184 11.2333 67.7612 11.1089C67.9905 10.9087 68.6091 10.5539 68.7285 10.5539C68.7528 10.5539 68.7936 10.5287 68.8193 10.4979C68.8447 10.4671 68.9432 10.4295 69.0377 10.4146C69.1324 10.3994 69.2475 10.3623 69.2937 10.3322C69.3399 10.3019 69.4995 10.2643 69.6483 10.2482C69.7974 10.2323 69.9402 10.1938 69.9659 10.1628C69.9983 10.1238 70.1147 10.1054 70.3434 10.1028C70.5252 10.101 70.7652 10.0872 70.8772 10.0725C70.989 10.0576 71.2634 10.0669 71.4871 10.0933C71.7109 10.1194 72.0163 10.1423 72.1659 10.1441ZM52.9767 11.0182C53.0253 11.0487 53.1743 11.0868 53.308 11.1026C53.4415 11.1183 53.5876 11.157 53.6321 11.1883C53.6769 11.2195 53.7619 11.2452 53.8211 11.2452C53.8802 11.2452 54.085 11.325 54.2763 11.4225C54.4674 11.5201 54.6574 11.6113 54.6984 11.6253C54.7395 11.6393 54.8207 11.6831 54.8788 11.7226C54.9371 11.762 55.0377 11.8299 55.1026 11.8735C55.1674 11.9172 55.2969 12.0177 55.3905 12.0973C55.4843 12.1766 55.6168 12.284 55.6854 12.336C55.754 12.388 55.81 12.4457 55.81 12.4639C55.81 12.4821 55.898 12.5859 56.0053 12.6946C56.2199 12.9116 56.4162 13.1827 56.5172 13.4014C56.5531 13.4793 56.6189 13.5978 56.6635 13.6648C56.7599 13.8104 56.8266 13.9569 56.8268 14.0234C56.8271 14.0498 56.8614 14.1279 56.9034 14.1968C56.9454 14.2656 56.9932 14.4394 57.0093 14.5832C57.0256 14.7266 57.062 14.8715 57.0903 14.9051C57.251 15.0955 57.2165 16.9719 57.0464 17.2979C57.0154 17.3574 56.9899 17.447 56.9897 17.4969C56.9895 17.5466 56.9636 17.6565 56.9318 17.7408C56.9003 17.8252 56.8625 17.9479 56.8478 18.0137C56.8334 18.0793 56.786 18.1829 56.7428 18.2436C56.6994 18.3045 56.6642 18.3766 56.6642 18.4043C56.6642 18.4319 56.5909 18.5338 56.5013 18.6309C56.412 18.728 56.3387 18.8381 56.3387 18.8756C56.3387 18.9134 56.2426 19.0474 56.1252 19.1738C56.0079 19.3001 55.8471 19.4755 55.768 19.5637C55.4801 19.8852 55.1021 20.168 54.712 20.3538C54.5666 20.4231 54.4203 20.4963 54.3867 20.5164C54.18 20.641 53.8083 20.8017 53.7273 20.8017C53.6751 20.8017 53.596 20.8269 53.5519 20.8575C53.4672 20.9163 53.3552 20.9385 52.8057 21.0047C52.6181 21.0274 52.3969 21.0661 52.3141 21.0908C52.0413 21.1727 50.3635 20.9942 50.0151 20.8465C49.7925 20.7521 49.7015 20.7206 49.6523 20.7206C49.5996 20.7206 49.3018 20.5922 49.1814 20.5176C49.1478 20.4968 48.9995 20.4233 48.8515 20.3547C48.7036 20.2859 48.5391 20.1827 48.4857 20.1253C48.432 20.0682 48.3305 19.9912 48.2596 19.9541C48.0909 19.8659 47.6674 19.4592 47.5549 19.277C47.5059 19.1981 47.4334 19.116 47.393 19.0943C47.3529 19.0728 47.3083 19.0086 47.2941 18.9517C47.2798 18.8948 47.1702 18.7067 47.0505 18.5338C46.9049 18.3234 46.8232 18.1589 46.8032 18.0366C46.7866 17.9358 46.7497 17.8261 46.721 17.7925C46.6923 17.759 46.6559 17.6491 46.6403 17.5485C46.6247 17.4479 46.5859 17.3124 46.5544 17.2475C46.5232 17.1824 46.4963 17.0361 46.4954 16.922C46.4942 16.8081 46.4781 16.5867 46.4599 16.4302C46.4261 16.1408 46.4725 15.2372 46.5369 14.931C46.6585 14.3543 46.8454 13.8076 46.9413 13.7483C46.9655 13.7331 46.9854 13.6876 46.9854 13.647C46.9854 13.6065 47.0099 13.5528 47.0398 13.5281C47.0699 13.5031 47.1151 13.4135 47.1403 13.3286C47.1657 13.2439 47.2511 13.112 47.33 13.0355C47.4089 12.959 47.4735 12.874 47.4735 12.8465C47.4735 12.7877 48.0909 12.1638 48.2227 12.0891C48.4182 11.9788 48.7099 11.7898 48.8109 11.7086C48.8693 11.6614 48.9855 11.6006 49.069 11.5735C49.1525 11.5462 49.2314 11.507 49.2442 11.4862C49.257 11.4655 49.2986 11.4484 49.3364 11.4484C49.3742 11.4482 49.5149 11.3934 49.649 11.3264C49.7832 11.2594 49.9388 11.2041 49.9948 11.2034C50.0506 11.2025 50.132 11.175 50.1754 11.1421C50.219 11.1092 50.3406 11.0826 50.4472 11.0826C50.5534 11.0826 50.6915 11.0613 50.7545 11.0354C51.059 10.9104 52.784 10.8971 52.9767 11.0182Z" fill="#060F3E"/>
<path id="path2" fill-rule="evenodd" clip-rule="evenodd" d="M9.70858 11.8643C9.68781 11.893 9.62621 12.0535 9.57208 12.2213C9.51772 12.389 9.44819 12.5568 9.41762 12.5941C9.38705 12.6315 9.36745 12.7047 9.37445 12.757C9.38122 12.8093 9.34692 12.9369 9.29839 13.0405C9.24962 13.1441 9.19783 13.2768 9.18313 13.3354C9.16819 13.394 9.13996 13.4521 9.12013 13.4644C9.1003 13.4766 9.08396 13.5487 9.08396 13.6243C9.08396 13.6999 9.0653 13.7734 9.04266 13.7874C8.97663 13.828 9.14043 14.0048 9.40035 14.1737C9.71744 14.38 9.78044 14.5135 9.60335 14.6049C9.53242 14.6418 9.44912 14.6969 9.41855 14.7274C9.38799 14.7582 9.34109 14.7832 9.31426 14.7832C9.28766 14.7832 9.13296 14.8735 8.97033 14.9836C8.80771 15.0938 8.65931 15.1899 8.64041 15.1971C8.44465 15.2718 8.34712 15.6614 8.51488 15.6983C8.58231 15.713 8.65604 15.7604 8.67914 15.8033C8.70201 15.8462 8.75894 15.8812 8.80561 15.8812C8.85204 15.8812 8.96333 15.9545 9.05293 16.0439C9.14229 16.1334 9.24706 16.2065 9.28579 16.2065C9.32429 16.2065 9.38915 16.2431 9.42952 16.2879C9.47012 16.3327 9.53078 16.3693 9.56415 16.3693C9.59775 16.3693 9.68524 16.4151 9.75851 16.4708C9.83177 16.5268 9.90714 16.5726 9.9258 16.5726C9.94447 16.5726 10.025 16.6169 10.105 16.6713L10.2501 16.77L10.7562 16.5184C11.0346 16.3801 11.3146 16.2261 11.3783 16.1757C11.4422 16.1255 11.5185 16.0847 11.5479 16.0847C11.5775 16.0847 11.7061 16.0114 11.8339 15.9218C11.9616 15.8325 12.081 15.7592 12.0995 15.7592C12.2336 15.7592 13.1567 15.2405 13.3363 15.0641L13.5421 14.8618L13.5368 14.5422C13.5305 14.1602 13.467 14.0387 13.2185 13.9323C13.1247 13.8919 13.0206 13.8261 12.9875 13.786C12.9541 13.7456 12.8354 13.6707 12.7236 13.6196C12.6118 13.5683 12.467 13.4705 12.4016 13.4024C12.3365 13.3342 12.2605 13.2785 12.2327 13.2785C12.1419 13.2785 11.7511 13.0615 11.595 12.9245C11.511 12.8508 11.4093 12.7906 11.3687 12.7906C11.3283 12.7906 11.2415 12.7344 11.1757 12.6655C11.0712 12.5561 10.5422 12.2642 10.4419 12.2607C10.4221 12.2598 10.3432 12.1968 10.2672 12.12C10.1909 12.0435 10.0719 11.9688 10.0028 11.9541C9.9335 11.9394 9.84764 11.9016 9.81171 11.8699C9.75921 11.8239 9.73891 11.8228 9.70858 11.8643ZM7.48195 18.0603C7.42782 18.2012 7.51275 18.2639 7.67071 18.2005C7.73651 18.1741 7.74304 18.1629 7.69381 18.161C7.65624 18.1596 7.61378 18.1221 7.59955 18.0773C7.56851 17.9795 7.51578 17.9721 7.48195 18.0603ZM31.035 21.4019C30.9293 21.5305 30.7884 21.7216 30.7219 21.8268C30.6554 21.9321 30.5404 22.0786 30.4664 22.1523C30.3927 22.2258 30.2982 22.3534 30.2564 22.4353C30.2149 22.5172 30.1008 22.6729 30.0025 22.7809C29.9045 22.8892 29.8243 22.9925 29.8243 23.0107C29.8241 23.0555 29.6306 23.3119 29.4706 23.4795C29.3992 23.5544 29.3292 23.6685 29.3149 23.7331C29.3007 23.798 29.2491 23.8831 29.2004 23.9226C29.0429 24.05 28.8392 24.3395 28.863 24.4018C28.8989 24.4954 35.7405 24.4923 35.8744 24.3985L35.9647 24.3353V22.842C35.9647 21.5562 35.9559 21.3361 35.9015 21.2582L35.838 21.1679L33.5325 21.1681L31.227 21.1684L31.035 21.4019ZM45.0215 26.6478C44.9613 26.7579 45.143 28.0695 45.2403 28.2284C45.283 28.2981 45.318 28.408 45.3183 28.4724C45.3183 28.5368 45.3549 28.6495 45.3995 28.7228C45.4443 28.796 45.4807 28.8987 45.4807 28.9507C45.4807 29.003 45.5432 29.1274 45.6195 29.2275C45.696 29.3275 45.788 29.472 45.8241 29.5485C45.8601 29.625 45.9133 29.7282 45.9424 29.7776C46.0383 29.9414 46.8554 30.7653 46.9219 30.7653C46.9579 30.7653 47.0652 30.8372 47.1604 30.9249C47.2558 31.0129 47.3816 31.0966 47.4404 31.1113C47.4989 31.126 47.5885 31.1823 47.6394 31.2364C47.69 31.2905 47.7652 31.3346 47.8065 31.3346C47.8475 31.3346 47.9129 31.3517 47.9518 31.3724C48.2213 31.5171 48.5739 31.6599 48.6611 31.6599C48.7181 31.6599 48.7869 31.6865 48.8137 31.7189C48.8408 31.7513 48.9481 31.7905 49.0527 31.8062C49.157 31.8216 49.3084 31.8573 49.3891 31.8855C49.4698 31.9137 49.6619 31.9504 49.8161 31.9667C49.9703 31.983 50.1696 32.0225 50.2592 32.054C50.6523 32.193 52.8253 32.1594 53.3904 32.0054C53.5022 31.9749 53.6944 31.9375 53.8174 31.9221C53.9404 31.907 54.0904 31.8692 54.1508 31.8381C54.2113 31.8073 54.3032 31.7819 54.3547 31.7819C54.4065 31.7819 54.5127 31.7481 54.5906 31.7065C54.6686 31.665 54.7985 31.619 54.8795 31.6041C55.1117 31.5612 56.2797 30.9473 56.5741 30.7133C56.9986 30.3759 57.4428 29.9424 57.4997 29.8096C57.5284 29.7424 57.6075 29.6346 57.6754 29.57C57.7433 29.5053 57.8098 29.4024 57.8231 29.3413C57.8367 29.2802 57.8924 29.188 57.9473 29.1367C58.0019 29.0851 58.0467 29.0016 58.0467 28.951C58.0467 28.9003 58.0623 28.8492 58.0812 28.8373C58.1276 28.8086 58.326 28.2195 58.3719 27.9736C58.3922 27.8651 58.4286 27.6807 58.4531 27.5641C58.4774 27.4474 58.4921 27.1912 58.4855 26.9948L58.4739 26.6375H57.1115H55.7491L55.7458 26.8613C55.7388 27.3427 55.5172 28.02 55.2829 28.2746C55.247 28.3137 55.19 28.3854 55.1562 28.4341C55.0841 28.5384 54.3676 29.0322 54.2225 29.0777C54.1674 29.0949 54.0787 29.1432 54.0255 29.1848C53.9721 29.2265 53.8897 29.2608 53.8424 29.2611C53.7952 29.2615 53.6466 29.2958 53.5124 29.3378C53.3783 29.3796 53.1494 29.4272 53.004 29.4437C52.8587 29.4601 52.6697 29.5014 52.584 29.5354C52.3666 29.622 50.8334 29.5889 50.6829 29.4946C50.6288 29.4605 50.478 29.4213 50.3481 29.4071C50.2183 29.3929 50.0718 29.3551 50.0228 29.3231C49.9738 29.2909 49.8513 29.2522 49.7508 29.237C49.6502 29.2216 49.5403 29.1864 49.5067 29.1584C49.4731 29.1304 49.4001 29.0935 49.3441 29.0765C49.2881 29.0595 49.2185 29.0116 49.1891 28.9701C49.1593 28.9274 49.087 28.8945 49.023 28.8945C48.9446 28.8945 48.8672 28.8481 48.7694 28.7421C48.6922 28.6581 48.5566 28.5235 48.4679 28.4425C48.0904 28.0975 47.8394 27.7365 47.8394 27.5384C47.8394 27.512 47.8027 27.4222 47.7582 27.3387C47.7054 27.2405 47.6767 27.1091 47.6767 26.9663C47.6767 26.5864 47.795 26.6172 46.3328 26.6172C45.6207 26.6172 45.0306 26.631 45.0215 26.6478Z" fill="#10BFFA"/>
<path id="path3" fill-rule="evenodd" clip-rule="evenodd" d="M40.1128 0.0174255C40.0568 0.0349249 39.8647 0.0622242 39.686 0.0783236C39.5073 0.0944231 39.3335 0.131755 39.2996 0.161388C39.266 0.190787 39.1956 0.228119 39.1431 0.243985C38.8955 0.319582 38.3598 0.799767 38.3026 0.99716C38.2863 1.05316 38.2499 1.12642 38.2217 1.15979C38.1934 1.19339 38.1568 1.26665 38.1405 1.32265C38.1239 1.37841 38.0805 1.45821 38.0441 1.49974C37.9442 1.61314 37.9505 2.87007 38.0516 2.9816C38.0891 3.02313 38.1199 3.08542 38.1199 3.11972C38.1199 3.15402 38.1554 3.22729 38.1988 3.28235C38.2422 3.33765 38.29 3.43168 38.305 3.49165C38.3346 3.60924 38.6708 3.966 38.7522 3.966C38.7793 3.966 38.8771 4.03903 38.9692 4.12862C39.0614 4.21799 39.1673 4.29125 39.2047 4.29125C39.242 4.29125 39.3057 4.32112 39.3458 4.35752C39.4588 4.45971 40.6765 4.49355 40.8214 4.39858C40.8774 4.36195 40.9646 4.33185 41.0155 4.33185C41.2759 4.33185 42.1868 3.58708 42.1868 3.37428C42.1868 3.33415 42.2153 3.26975 42.2503 3.23102C42.285 3.19252 42.3291 3.05113 42.3483 2.91696C42.3672 2.7828 42.404 2.63301 42.4302 2.58401C42.5074 2.43981 42.3919 1.41271 42.2834 1.27762C42.2582 1.24635 42.2097 1.16609 42.1754 1.09889C42.1131 0.976394 41.8289 0.667938 41.5843 0.457478C41.3366 0.244218 41.036 0.112156 40.6979 0.067824C40.5215 0.0447247 40.3405 0.0167257 40.2957 0.00575938C40.2509 -0.00520692 40.1685 -7.39381e-05 40.1128 0.0174255ZM40.6457 0.120556C41.0958 0.163954 41.7057 0.547308 42.0036 0.974294C42.2654 1.34902 42.2496 1.31168 42.3049 1.67614C42.3931 2.25595 42.3471 2.79167 42.1674 3.27465C42.0349 3.63117 41.3223 4.25019 41.0437 4.25089C40.9679 4.25089 40.8508 4.28752 40.7838 4.33185C40.6324 4.43218 39.9751 4.44688 39.6972 4.35635C39.6015 4.32532 39.4501 4.28705 39.361 4.27142C39.2546 4.25299 39.1396 4.18859 39.0264 4.08429C38.9314 3.99679 38.8299 3.92516 38.801 3.92516C38.7186 3.92516 38.4622 3.65684 38.3829 3.48768C38.3435 3.40415 38.2774 3.29192 38.2361 3.23849C38.1946 3.18529 38.1608 3.10059 38.1608 3.05043C38.1608 3.00026 38.1358 2.93843 38.1052 2.91323C38.0138 2.8374 37.9792 2.07652 38.0572 1.85627C38.0917 1.7585 38.1199 1.63904 38.1199 1.59097C38.1199 1.54291 38.1743 1.39405 38.2408 1.26059C38.3071 1.12689 38.3621 0.99856 38.3628 0.975694C38.3659 0.877231 38.853 0.462611 39.1487 0.306749C39.4623 0.141555 39.9592 0.0482245 40.316 0.0874232C40.372 0.093723 40.5204 0.108656 40.6457 0.120556ZM57.8978 6.82284C57.8527 6.873 57.7732 6.98733 57.7212 7.07693C57.6691 7.16629 57.5042 7.36765 57.3551 7.52421C57.2057 7.68077 57.0368 7.88353 56.9794 7.97453C56.7074 8.40782 56.503 8.51725 56.2981 8.33922C56.2645 8.31005 56.1912 8.27272 56.1355 8.25616C56.0795 8.23959 55.9574 8.16423 55.8641 8.08863C55.771 8.01303 55.6646 7.9512 55.6278 7.9512C55.5911 7.9512 55.457 7.9036 55.3296 7.8455C54.9026 7.65021 54.855 7.63224 54.694 7.60541C54.6056 7.59071 54.4889 7.54335 54.4343 7.50065C54.3797 7.45772 54.2691 7.42178 54.1881 7.42085C54.1072 7.41968 53.9679 7.39285 53.8785 7.36088C53.7889 7.32892 53.606 7.29065 53.4718 7.27595C53.3374 7.26149 53.182 7.22556 53.126 7.19662C52.8654 7.06083 50.5826 7.0417 50.3282 7.17282C50.2902 7.19242 50.1402 7.22112 49.9948 7.23652C49.8494 7.25192 49.614 7.30022 49.4719 7.34362C49.3298 7.38702 49.1719 7.42248 49.121 7.42248C49.0704 7.42248 49.0062 7.44955 48.9789 7.48245C48.9516 7.51535 48.8625 7.55315 48.7808 7.56645C48.6992 7.57951 48.5573 7.62571 48.4654 7.66911C48.3734 7.71251 48.2614 7.74797 48.2166 7.74797C48.1718 7.74797 48.0885 7.7846 48.0316 7.82917C47.9747 7.87397 47.889 7.9106 47.8412 7.9106C47.7934 7.9106 47.6441 7.98363 47.5094 8.07323C47.3748 8.16259 47.2215 8.24659 47.1685 8.25989C47.1158 8.27295 47.0411 8.31892 47.0024 8.36162C46.9637 8.40432 46.9172 8.43932 46.8993 8.43932C46.8608 8.43932 46.2292 8.86444 46.1111 8.97013C45.6601 9.37309 44.6871 10.3566 44.6446 10.4522C44.615 10.5194 44.489 10.6897 44.3647 10.8309C44.2403 10.9723 44.1388 11.1221 44.1388 11.1641C44.1388 11.2061 44.119 11.2528 44.0947 11.2677C44.0704 11.2826 44.0142 11.3706 43.9696 11.4632C43.9251 11.5558 43.8359 11.7322 43.772 11.8552C43.7078 11.9782 43.6544 12.1095 43.653 12.1471C43.6519 12.1847 43.6271 12.2397 43.5984 12.2691C43.5338 12.3359 43.3254 12.761 43.3254 12.8263C43.3254 12.8527 43.2797 12.9831 43.2237 13.1159C43.1677 13.2489 43.122 13.4106 43.122 13.4757C43.122 13.5408 43.0961 13.6154 43.0643 13.6418C43.0293 13.6709 42.9953 13.8128 42.978 14.0027C42.9621 14.1747 42.9246 14.3639 42.8945 14.4232C42.7629 14.6815 42.7482 16.965 42.877 17.1202C42.8998 17.148 42.9299 17.315 42.9437 17.4917C42.9584 17.679 42.9983 17.8647 43.0394 17.9373C43.0783 18.0057 43.1231 18.1338 43.1395 18.222C43.1556 18.3102 43.192 18.4189 43.2204 18.4637C43.2489 18.5083 43.2825 18.6242 43.2953 18.7208C43.3079 18.8176 43.3453 18.9275 43.3782 18.9649C43.4108 19.0024 43.4512 19.0787 43.4678 19.1345C43.4841 19.1905 43.521 19.2638 43.5494 19.2974C43.5777 19.3307 43.6145 19.4224 43.6311 19.5006C43.6476 19.579 43.6955 19.6865 43.7372 19.74C43.7792 19.7932 43.8133 19.8821 43.8133 19.9371C43.8133 19.999 43.9071 20.1539 44.0574 20.3408C44.1915 20.5076 44.3014 20.66 44.3014 20.6793C44.3014 20.6989 44.3243 20.7391 44.3523 20.7685C44.3801 20.7981 44.4545 20.8982 44.5175 20.9908C44.7321 21.307 45.9879 22.517 46.3346 22.7417C46.4578 22.8213 46.6041 22.9281 46.6601 22.979C46.7159 23.0301 46.8258 23.1006 46.9039 23.1356C46.9823 23.1708 47.0738 23.2163 47.1074 23.2368C47.141 23.2571 47.214 23.294 47.27 23.3187C47.326 23.3432 47.3991 23.3799 47.4327 23.3999C47.4663 23.42 47.5395 23.4566 47.5953 23.4814C47.6513 23.5059 47.7245 23.5444 47.7581 23.567C47.7915 23.5896 47.8648 23.6263 47.9208 23.6484C47.9765 23.6708 48.0498 23.7063 48.0834 23.7273C48.2178 23.8113 48.4145 23.8864 48.5687 23.9125C48.6583 23.9277 48.7785 23.9769 48.8359 24.022C48.8933 24.0672 49.0174 24.1139 49.1117 24.1256C49.2059 24.1375 49.3105 24.1701 49.3441 24.1979C49.3777 24.2257 49.5401 24.2614 49.705 24.2768C49.87 24.2924 50.0531 24.3255 50.1117 24.3505C50.2776 24.4207 51.6622 24.4919 52.1703 24.456C53.2324 24.3811 53.7516 24.3139 54.0003 24.2191C54.1382 24.1666 54.4639 24.0959 54.568 24.0959C54.6221 24.0959 54.6765 24.0801 54.6886 24.0605C54.7295 23.9942 55.1382 23.8155 55.3128 23.7877C55.4084 23.7723 55.4952 23.7459 55.5057 23.7289C55.5162 23.7119 55.6588 23.6335 55.8221 23.5549C55.9857 23.4762 56.1436 23.3827 56.173 23.3472C56.2027 23.3117 56.2554 23.2826 56.2902 23.2826C56.3252 23.2826 56.3917 23.2487 56.4379 23.2072C56.4841 23.1657 56.6007 23.0856 56.6973 23.0294C56.8791 22.9237 57.283 22.6118 57.4839 22.4221C57.5471 22.3623 57.6169 22.3075 57.639 22.3C57.7415 22.2653 58.7961 21.1731 58.8498 21.0459C58.8829 20.9677 58.982 20.8212 59.0702 20.7206C59.1584 20.6199 59.2534 20.5102 59.2814 20.4766C59.3094 20.443 59.4293 20.2234 59.5481 19.9887C59.6666 19.7537 59.8066 19.4794 59.8591 19.3786C59.9116 19.278 59.9825 19.1315 60.0166 19.0533C60.0507 18.9749 60.0962 18.8834 60.1181 18.8498C60.1883 18.7413 60.2756 18.5078 60.3003 18.362C60.3136 18.2836 60.351 18.169 60.3834 18.1069C60.4156 18.0449 60.4639 17.8437 60.4907 17.6596C60.5173 17.4756 60.5645 17.2835 60.5955 17.2329C60.6655 17.1188 60.6837 15.0772 60.6167 14.8583C60.5939 14.7834 60.554 14.5667 60.5281 14.3765C60.5022 14.1864 60.4543 13.9782 60.4217 13.9136C60.389 13.8492 60.3514 13.6845 60.3379 13.5477C60.3244 13.4108 60.2905 13.2715 60.2625 13.2379C60.2348 13.2043 60.1998 13.0914 60.1848 12.9871C60.1697 12.8825 60.1321 12.7761 60.1011 12.7505C60.07 12.7246 60.0332 12.6513 60.0192 12.5871C60.0049 12.5232 59.9671 12.449 59.9352 12.4224C59.903 12.3958 59.8766 12.3534 59.8764 12.3282C59.8761 12.303 59.8309 12.1907 59.7761 12.079C59.721 11.967 59.6755 11.8491 59.6748 11.8167C59.6734 11.7551 59.472 11.438 59.4193 11.4147C59.4025 11.4072 59.3887 11.3795 59.3887 11.3529C59.3887 11.3263 59.3374 11.2409 59.2744 11.1629C58.8976 10.6965 58.8971 10.6015 59.2697 10.196C59.6456 9.78654 59.6748 9.75294 59.839 9.53735C59.9158 9.43655 60.1111 9.21163 60.2733 9.03733C60.4354 8.86304 60.5682 8.70391 60.5682 8.68384C60.5682 8.61338 60.1069 8.14976 59.9823 8.09516C59.913 8.0646 59.7296 7.92833 59.5747 7.79207C59.4198 7.65604 59.2772 7.54451 59.2578 7.54451C59.2119 7.54451 59.1486 7.49341 58.8246 7.19359C58.6764 7.05663 58.5121 6.93133 58.4596 6.91523C58.4071 6.89913 58.3292 6.85107 58.2867 6.8086C58.1815 6.70314 57.9988 6.70991 57.8978 6.82284ZM58.3861 6.9353C58.479 6.9983 58.6192 7.11706 58.6974 7.19919C58.7758 7.28132 58.9405 7.41408 59.0635 7.49411C59.1864 7.57414 59.3512 7.69827 59.4293 7.76967C59.5077 7.8413 59.7009 7.98923 59.8587 8.09843C60.5278 8.56181 60.5668 8.68151 60.1706 9.05786C60.0649 9.15819 59.9144 9.32782 59.836 9.43492C59.6582 9.67781 59.5161 9.84627 59.2037 10.1853C58.8003 10.623 58.8001 10.6211 59.2261 11.225C59.458 11.5535 59.6305 11.8414 59.6316 11.9014C59.6323 11.938 59.7417 12.1812 59.8752 12.4418C60.0087 12.7026 60.1302 12.9838 60.1456 13.0666C60.161 13.1497 60.1963 13.2542 60.2238 13.299C60.2513 13.3436 60.2852 13.4978 60.2989 13.6415C60.3129 13.7853 60.3493 13.9316 60.3799 13.9668C60.413 14.0053 60.455 14.234 60.4847 14.538C60.512 14.8168 60.5516 15.0779 60.5733 15.1183C60.6198 15.2053 60.6261 16.5126 60.5801 16.584C60.5628 16.6113 60.5351 16.78 60.5185 16.959C60.4686 17.4994 60.3643 18.0367 60.2674 18.2525C60.2355 18.3239 60.1979 18.449 60.1844 18.5307C60.1706 18.6123 60.1256 18.722 60.0845 18.7747C60.0434 18.8272 59.9958 18.9161 59.9786 18.9719C59.9613 19.0279 59.9221 19.1098 59.8915 19.1539C59.861 19.198 59.836 19.2603 59.836 19.2922C59.836 19.3244 59.7903 19.4105 59.7345 19.4838C59.6785 19.5573 59.6326 19.6322 59.6323 19.6504C59.6316 19.7092 59.2889 20.373 59.2158 20.4568C59.1773 20.5011 59.0735 20.6206 58.9855 20.7218C58.8974 20.8233 58.8136 20.9535 58.7991 21.0114C58.7774 21.0977 57.8275 22.0679 57.5009 22.3374C57.1173 22.654 56.7099 22.9613 56.5172 23.0793C56.3896 23.1575 56.2258 23.2609 56.1534 23.3089C56.0811 23.3572 55.9787 23.4097 55.9262 23.4258C55.8734 23.4419 55.8102 23.4713 55.7855 23.4909C55.6726 23.581 55.3678 23.72 55.2248 23.7469C55.138 23.763 55.0013 23.8117 54.9205 23.8549C54.84 23.8981 54.7535 23.9333 54.7278 23.9333C54.7021 23.9333 54.6597 23.9594 54.6331 23.9914C54.6058 24.0243 54.4681 24.0614 54.313 24.0775C54.1634 24.0929 54.0136 24.1295 53.98 24.1587C53.9445 24.1897 53.7082 24.2313 53.4128 24.2586C53.1344 24.284 52.8743 24.3225 52.8344 24.3437C52.724 24.4028 51.2853 24.434 50.8691 24.3862C50.3588 24.3279 49.7575 24.2245 49.6766 24.1813C49.639 24.1613 49.4845 24.1319 49.3333 24.1158C49.1667 24.0978 49.0211 24.0572 48.964 24.0124C48.9124 23.9716 48.8209 23.9261 48.761 23.9109C48.701 23.896 48.642 23.8673 48.6296 23.8474C48.6173 23.8276 48.5575 23.8113 48.4969 23.8113C48.355 23.8113 46.8125 23.0415 46.645 22.8871C46.575 22.8227 46.4354 22.7167 46.3346 22.6516C45.8593 22.3448 44.748 21.2279 44.4134 20.7206C44.3322 20.5977 44.1817 20.3963 44.0791 20.2734C43.9764 20.1502 43.8831 20.0039 43.8716 19.9479C43.8602 19.8921 43.8166 19.7813 43.7746 19.7017C43.7323 19.6222 43.6852 19.4892 43.6698 19.4063C43.6542 19.3235 43.6273 19.247 43.6098 19.2362C43.5434 19.1949 43.3254 18.6867 43.3254 18.5729C43.3254 18.5071 43.3 18.4322 43.2687 18.4063C43.2377 18.3804 43.1994 18.2731 43.1838 18.1674C43.1682 18.0619 43.1252 17.9417 43.0881 17.9002C43.0401 17.8468 43.0165 17.7289 43.0062 17.4935C42.9962 17.2609 42.9722 17.14 42.9255 17.0875C42.8254 16.9748 42.799 15.1799 42.8928 14.8572C42.9283 14.7349 42.9696 14.499 42.9843 14.3329C42.9992 14.1668 43.0331 13.9852 43.0599 13.9292C43.0865 13.8732 43.1311 13.7178 43.1586 13.5837C43.1861 13.4493 43.2351 13.2878 43.2671 13.2244C43.2991 13.1611 43.3254 13.0837 43.3254 13.0524C43.3254 12.9651 43.5371 12.4572 43.6187 12.348C43.6586 12.2946 43.6913 12.219 43.6913 12.18C43.6913 12.141 43.7188 12.0864 43.7524 12.0587C43.786 12.0307 43.8133 11.9761 43.8133 11.9371C43.8133 11.8981 43.8462 11.8225 43.8863 11.7691C43.9801 11.6443 44.1792 11.2518 44.1796 11.1907C44.1799 11.1648 44.2398 11.0796 44.3129 11.0012C44.4743 10.8281 44.7081 10.5098 44.7081 10.4632C44.7081 10.431 45.8904 9.24826 46.105 9.06603C46.3031 8.89757 47.078 8.38052 47.2567 8.29745C47.3277 8.26456 47.4674 8.18219 47.5675 8.11476C47.6676 8.0471 47.7761 7.9918 47.8088 7.9918C47.8412 7.9918 47.9539 7.94607 48.0591 7.8903C48.1644 7.8343 48.2768 7.78857 48.3093 7.78857C48.3417 7.78857 48.4367 7.75194 48.5202 7.70714C48.6035 7.66258 48.7178 7.62571 48.774 7.62571C48.8303 7.62548 48.9313 7.58908 48.9983 7.54451C49.0655 7.50018 49.1576 7.46355 49.2031 7.46355C49.2484 7.46332 49.3858 7.43415 49.5081 7.39868C50.3457 7.15556 52.6354 7.06946 53.1179 7.26312C53.1692 7.28365 53.2707 7.30045 53.3435 7.30045C53.4163 7.30045 53.4933 7.31609 53.5145 7.33499C53.5358 7.35388 53.6902 7.39145 53.858 7.41828C54.1408 7.46355 54.4014 7.54941 54.6849 7.69057C54.7481 7.72207 54.8403 7.74797 54.8897 7.74797C54.9392 7.74797 55.0514 7.7846 55.1392 7.82917C55.2269 7.87397 55.3177 7.91107 55.3408 7.91153C55.3641 7.912 55.4287 7.94817 55.4847 7.9918C55.5407 8.03566 55.6203 8.07183 55.6618 8.0723C55.7034 8.07276 55.7918 8.11896 55.8581 8.17496C55.9245 8.23072 56.0025 8.27645 56.0314 8.27645C56.0601 8.27645 56.1285 8.31169 56.1828 8.35462C56.461 8.57325 56.6845 8.51375 56.9232 8.15816C57.0261 8.00486 57.2354 7.74471 57.3887 7.57998C57.542 7.41502 57.7179 7.19289 57.78 7.08626C57.9785 6.7449 58.0716 6.72157 58.3861 6.9353ZM69.7771 6.90147C69.6887 6.9171 69.5106 6.93087 69.3814 6.93227C69.2519 6.93343 69.0801 6.96213 68.9994 6.99596C68.9187 7.02956 68.75 7.06829 68.6245 7.08206C68.4992 7.09559 68.3599 7.12919 68.3151 7.15672C68.2703 7.18426 68.1545 7.21716 68.0577 7.22976C67.9609 7.24259 67.8498 7.28202 67.8106 7.31749C67.7714 7.35295 67.6916 7.38188 67.6333 7.38188C67.5085 7.38188 67.3104 7.45165 67.2756 7.50788C67.2623 7.52958 67.1547 7.56248 67.0367 7.58114C66.9184 7.59981 66.8101 7.63294 66.7959 7.65464C66.7814 7.67611 66.7082 7.71507 66.633 7.74074C66.5579 7.76641 66.4097 7.8497 66.3043 7.92553C66.1986 8.00136 66.0702 8.07673 66.0191 8.09306C65.9074 8.12853 65.4482 8.43862 65.4482 8.47875C65.4482 8.49415 65.3567 8.56601 65.2452 8.63834C65.1337 8.71067 65.0193 8.80144 64.9911 8.84017C64.9629 8.8789 64.8745 8.9503 64.7947 8.99906C64.7149 9.0476 64.6022 9.15376 64.5445 9.23496C64.4867 9.31615 64.2648 9.57048 64.0513 9.80007C63.8378 10.0297 63.6516 10.2635 63.6374 10.3199C63.6234 10.3762 63.5492 10.4828 63.4726 10.557C63.3961 10.6312 63.3333 10.7224 63.3333 10.7597C63.3333 10.7971 63.2993 10.8713 63.2577 10.9245C63.216 10.9779 63.1677 11.0673 63.1504 11.1233C63.1331 11.1793 63.0848 11.2686 63.0431 11.3218C63.0015 11.3753 62.9675 11.4509 62.9675 11.4898C62.9675 11.5288 62.9399 11.5834 62.9063 11.6111C62.873 11.6391 62.8455 11.7199 62.8455 11.7906C62.8455 11.8615 62.8074 11.9919 62.761 12.0804C62.6448 12.3025 62.4924 12.7712 62.46 13.0057C62.4453 13.1128 62.407 13.2631 62.3751 13.3399C62.3429 13.4166 62.3167 13.5615 62.3167 13.6621C62.3167 13.7629 62.2899 13.9239 62.2572 14.0202C62.1214 14.4204 62.0909 16.6283 62.2171 16.9181C62.2463 16.9853 62.2827 17.2324 62.2978 17.4672C62.3137 17.7135 62.3473 17.92 62.3769 17.9553C62.4052 17.9889 62.4411 18.1352 62.4567 18.2805C62.4721 18.4259 62.5099 18.5836 62.5405 18.631C62.5711 18.6783 62.6091 18.8305 62.6247 18.9691C62.6404 19.1077 62.6758 19.2437 62.7034 19.2712C62.7309 19.2988 62.767 19.3662 62.7836 19.4213C62.8004 19.4761 62.8466 19.5757 62.8863 19.6429C62.9262 19.7101 62.971 19.823 62.9859 19.8942C63.0011 19.9654 63.0396 20.0454 63.0718 20.072C63.1037 20.0988 63.1301 20.1485 63.1301 20.1826C63.1301 20.2167 63.1919 20.338 63.2678 20.4521C63.3434 20.5662 63.4355 20.7237 63.4722 20.8018C63.586 21.0445 63.6444 21.1299 63.817 21.3058C63.9089 21.3994 63.9841 21.4958 63.9841 21.5196C63.9841 21.5436 64.0837 21.671 64.2057 21.8028C64.3275 21.9344 64.4925 22.122 64.5721 22.2195C64.7142 22.3934 64.7569 22.4293 65.1509 22.71C65.2585 22.7865 65.4151 22.9102 65.4991 22.9846C65.5831 23.059 65.678 23.1199 65.71 23.1199C65.7422 23.1199 65.853 23.1932 65.9564 23.2826C66.0597 23.3722 66.1771 23.4452 66.217 23.4452C66.2569 23.4452 66.3227 23.4818 66.3631 23.5266C66.4037 23.5714 66.4571 23.6081 66.4818 23.6081C66.5066 23.6081 66.5952 23.6445 66.6788 23.6892C66.7623 23.734 66.8559 23.7707 66.8867 23.7707C66.9174 23.7707 66.9639 23.7961 66.9898 23.8271C67.0157 23.8584 67.1172 23.8957 67.2156 23.9107C67.3139 23.9254 67.4368 23.9704 67.4886 24.0105C67.5407 24.0509 67.6622 24.0941 67.7591 24.1067C67.8559 24.1193 67.9658 24.1564 68.0031 24.189C68.0407 24.2219 68.2038 24.2611 68.3685 24.2765C68.5321 24.2922 68.7351 24.329 68.8195 24.3589C69.2446 24.5089 71.8336 24.5304 72.0105 24.3855C72.0359 24.3647 72.1663 24.3346 72.3005 24.3185C72.4347 24.3024 72.5903 24.266 72.6461 24.2378C72.7021 24.2096 72.8484 24.1648 72.9715 24.1384C73.0945 24.1118 73.2317 24.0749 73.2765 24.0565C73.4618 23.9793 73.9315 23.7648 73.9882 23.7315C74.0218 23.7119 74.1629 23.637 74.3017 23.5651C74.4408 23.4933 74.5855 23.4004 74.6233 23.3586C74.6611 23.3169 74.7082 23.2826 74.728 23.2826C74.8683 23.2826 76.1266 22.0688 76.1644 21.8975C76.1947 21.7589 76.4178 21.5364 76.4434 21.6189C76.4607 21.6742 76.5013 22.1383 76.5942 23.3437C76.6222 23.7042 76.66 23.9468 76.6973 24.0054L76.7566 24.0978L78.3362 24.0929C79.9102 24.0882 79.916 24.088 79.962 24.0005C79.9961 23.9359 80.0054 21.7414 79.9972 15.5966L79.9865 7.28015L78.3035 7.26965C77.1908 7.26265 76.6035 7.27315 76.5699 7.30092C76.5333 7.33149 76.5111 7.65231 76.4892 8.47012C76.4726 9.09006 76.4441 9.63394 76.4259 9.67898C76.4042 9.73241 76.3916 9.73964 76.3895 9.69998C76.3879 9.66638 76.3228 9.55858 76.2446 9.46035C76.1667 9.36212 76.1028 9.26762 76.1028 9.25036C76.1028 9.23309 76.0067 9.11806 75.8893 8.99487C75.7719 8.87167 75.6326 8.71394 75.5801 8.64441C75.5274 8.57488 75.3582 8.43558 75.2038 8.33479C75.0496 8.23399 74.8678 8.09726 74.7999 8.031C74.7322 7.96473 74.6443 7.9106 74.6046 7.9106C74.5652 7.9106 74.4707 7.84644 74.3948 7.76827C74.3122 7.68311 74.2175 7.62594 74.159 7.62594C74.105 7.62594 73.97 7.58021 73.8584 7.52421C73.7471 7.46821 73.6326 7.42248 73.6039 7.42248C73.5752 7.42248 73.5052 7.38585 73.4485 7.34129C73.3915 7.29649 73.2833 7.25985 73.2079 7.25985C73.1325 7.25985 73.0303 7.23162 72.9809 7.19686C72.8848 7.12966 72.5555 7.04706 71.9956 6.95023C71.6241 6.88583 70.0585 6.8513 69.7771 6.90147ZM71.7109 6.97566C72.1925 7.04589 72.7455 7.16536 72.9053 7.23349C72.9919 7.27035 73.105 7.30045 73.1566 7.30045C73.2079 7.30045 73.3731 7.36462 73.5234 7.44278C73.6734 7.52118 73.8188 7.58511 73.8461 7.58511C73.8734 7.58511 73.9424 7.62174 73.9991 7.66654C74.0561 7.71134 74.1337 7.74797 74.1718 7.74797C74.2096 7.74797 74.295 7.7937 74.3615 7.84947C74.428 7.90547 74.5089 7.9512 74.5411 7.9512C74.5736 7.9512 74.6774 8.0198 74.7719 8.10379C74.9772 8.28579 75.1912 8.43932 75.2402 8.43932C75.2598 8.43932 75.4352 8.60848 75.6303 8.81544C75.9532 9.15749 76.0477 9.27929 76.3109 9.68971C76.4971 9.98067 76.5134 9.8843 76.6233 7.84947L76.6518 7.32099H78.2988H79.9459L79.9569 15.556C79.9632 20.0851 79.958 23.832 79.9459 23.8824L79.924 23.9739H78.3191H76.7143L76.6959 23.8824C76.6856 23.832 76.6672 23.4746 76.6551 23.0877C76.6427 22.7011 76.614 22.35 76.5914 22.3077C76.5687 22.2653 76.5501 22.0891 76.5501 21.916C76.5501 21.4153 76.292 21.3665 76.1322 21.8369C76.0867 21.9706 75.0939 22.9921 74.9236 23.0805C74.8676 23.1094 74.7304 23.199 74.6184 23.2793C74.1288 23.6309 73.2501 24.0353 72.8698 24.084C72.7802 24.0955 72.6764 24.1319 72.6391 24.165C72.6015 24.1981 72.455 24.2348 72.3136 24.2464C72.1722 24.2583 72.0107 24.2978 71.9547 24.3342C71.8292 24.4163 69.872 24.4562 69.4334 24.3857C68.6282 24.2562 68.4033 24.2135 68.3349 24.1771C68.2934 24.1547 68.2073 24.1365 68.1433 24.1365C68.0796 24.1365 67.9604 24.1025 67.8785 24.0607C67.7969 24.0192 67.6725 23.9734 67.6025 23.9594C67.5323 23.9454 67.417 23.9093 67.3461 23.8789C67.2751 23.8486 67.148 23.8012 67.0638 23.7739C66.914 23.7252 66.5719 23.5665 66.2375 23.3904C66.1461 23.3423 66.0119 23.2527 65.9396 23.1911C65.867 23.1295 65.7809 23.0793 65.7483 23.0793C65.7154 23.0793 65.6024 23.0007 65.4972 22.9048C65.392 22.8089 65.2235 22.6778 65.1227 22.6134C64.9057 22.4746 64.2624 21.8259 64.1129 21.5949C64.055 21.5056 63.9327 21.3499 63.841 21.2494C63.7496 21.1486 63.6234 20.9656 63.5606 20.8427C63.3912 20.51 63.3527 20.4435 63.2841 20.3651C63.2498 20.3259 63.1999 20.2253 63.173 20.1418C63.1462 20.058 63.1072 19.9791 63.0865 19.9665C63.0657 19.9537 63.0487 19.9119 63.0487 19.8737C63.0487 19.8354 62.9766 19.6604 62.8884 19.485C62.789 19.2869 62.7178 19.079 62.7008 18.9366C62.6856 18.8106 62.6406 18.6527 62.6005 18.5855C62.5603 18.5185 62.5144 18.3538 62.4985 18.2196C62.4824 18.0855 62.456 17.9574 62.4397 17.935C62.3958 17.8743 62.3167 17.3395 62.3167 17.1015C62.3167 16.9874 62.2887 16.8395 62.2544 16.7732C62.1809 16.6314 62.1914 14.8439 62.2682 14.3765C62.2922 14.2312 62.3291 13.9841 62.3501 13.8275C62.3956 13.4876 62.4931 13.0641 62.6028 12.7295C62.6467 12.5953 62.6828 12.4549 62.6828 12.4173C62.6828 12.38 62.7468 12.2262 62.8251 12.0762C62.9033 11.9259 62.9675 11.7663 62.9675 11.7215C62.9675 11.6496 63.0594 11.4499 63.3546 10.879C63.3998 10.7917 63.4843 10.669 63.5426 10.6064C63.6007 10.5439 63.6593 10.4471 63.6728 10.3913C63.6864 10.3353 63.803 10.1753 63.9323 10.0357C64.2291 9.71491 64.4668 9.43748 64.6122 9.24242C64.6747 9.15843 64.7473 9.08983 64.7737 9.08983C64.7998 9.08983 64.8999 9.0168 64.9958 8.9272C65.0917 8.83784 65.1834 8.76457 65.1992 8.76457C65.2153 8.76457 65.3045 8.69131 65.3976 8.60194C65.4907 8.51235 65.5761 8.43932 65.587 8.43932C65.598 8.43932 65.7116 8.36605 65.8392 8.27645C65.9671 8.18709 66.0936 8.11383 66.1204 8.11383C66.1472 8.11383 66.2175 8.07603 66.2765 8.0296C66.4403 7.90057 67.0024 7.62618 67.1032 7.62618C67.1522 7.62594 67.2784 7.58021 67.3836 7.52421C67.4889 7.46821 67.6139 7.42248 67.662 7.42248C67.7098 7.42248 67.8207 7.38585 67.9084 7.34129C67.9961 7.29649 68.127 7.25985 68.1993 7.25985C68.2714 7.25985 68.3407 7.24376 68.3529 7.22392C68.365 7.20432 68.4784 7.17516 68.6049 7.15929C68.7311 7.14366 68.9189 7.10236 69.0223 7.06759C69.3776 6.94813 71.1143 6.88887 71.7109 6.97566ZM38.3887 7.28365C38.3752 7.31889 38.364 11.1793 38.364 15.8619V24.3759L38.4545 24.4394C38.6094 24.5479 41.9234 24.5334 41.9819 24.424C42.0468 24.3027 42.0403 7.33289 41.9752 7.26802C41.8914 7.18426 38.4212 7.19919 38.3887 7.28365ZM23.0835 7.28692C22.999 7.32075 23.0109 10.3829 23.0959 10.5042L23.1593 10.5945H27.0983C31.5695 10.5945 31.3127 10.5766 31.0644 10.8717C31.0084 10.9382 30.9627 11.0064 30.9627 11.0229C30.9627 11.0395 30.8894 11.1326 30.8 11.2297C30.7104 11.3267 30.6369 11.4385 30.6362 11.4782C30.6355 11.5178 30.5604 11.6317 30.4692 11.7313C30.3779 11.8309 30.2485 12.0097 30.1813 12.1287C30.1141 12.2477 30.024 12.3641 29.9808 12.387C29.9377 12.4101 29.8597 12.5241 29.8077 12.6403C29.7557 12.7565 29.6677 12.8902 29.6122 12.9374C29.5566 12.9845 29.4547 13.1219 29.3856 13.2423C29.3163 13.363 29.1948 13.5246 29.115 13.6016C29.0352 13.6789 28.9701 13.7752 28.9701 13.8161C28.9701 13.8569 28.9015 13.9677 28.8175 14.0622C28.6371 14.2657 28.4819 14.4815 28.4819 14.5294C28.4819 14.548 28.4101 14.6334 28.3224 14.7193C28.2346 14.8049 28.1509 14.9225 28.1364 14.9804C28.1219 15.0382 28.0382 15.1635 27.9504 15.259C27.8625 15.3542 27.7904 15.4554 27.7899 15.4839C27.7897 15.5124 27.6798 15.66 27.5458 15.8124C27.4121 15.9648 27.3025 16.1202 27.302 16.1582C27.3018 16.196 27.2285 16.3078 27.1394 16.4067C27.0503 16.5056 26.9772 16.6064 26.9772 16.6309C26.9772 16.6554 26.8706 16.794 26.7399 16.9391C26.6093 17.0843 26.4907 17.2488 26.4767 17.3045C26.4625 17.3605 26.3864 17.4779 26.308 17.5654C26.2294 17.6531 26.1536 17.7628 26.1396 17.8094C26.1254 17.8561 26.0061 18.0255 25.8745 18.1858C25.7429 18.3459 25.6354 18.4959 25.6354 18.5188C25.6354 18.5416 25.5621 18.645 25.4727 18.7483C25.3831 18.8517 25.3099 18.963 25.3099 18.9957C25.3099 19.0283 25.2404 19.1324 25.1552 19.2269C25.07 19.3216 24.9347 19.4997 24.8542 19.6226C24.7739 19.7456 24.6615 19.8898 24.6045 19.943C24.5474 19.9959 24.49 20.0893 24.4767 20.1499C24.4634 20.2106 24.3801 20.331 24.2914 20.4173C24.203 20.5037 24.1307 20.5898 24.1307 20.6084C24.1307 20.6562 23.9755 20.8723 23.7951 21.0755C23.7114 21.17 23.6425 21.2757 23.6425 21.3103C23.6425 21.3448 23.5739 21.4505 23.4902 21.545C23.3194 21.7375 23.1547 21.9636 23.1547 22.0056C23.1547 22.0207 23.0814 22.1127 22.992 22.2097C22.9024 22.3068 22.8294 22.4144 22.8294 22.4489C22.8294 22.4834 22.7515 22.5961 22.6565 22.6992L22.4836 22.8866L22.471 23.6111C22.4533 24.6123 22.2769 24.5026 23.9064 24.5026C25.403 24.5026 25.4055 24.5022 25.5784 24.2527C25.6382 24.1664 25.7035 24.0959 25.7236 24.0959C25.7436 24.0959 25.794 24.0173 25.8351 23.9212C25.8764 23.825 25.9861 23.6587 26.0787 23.5514C26.1716 23.4443 26.2829 23.2872 26.326 23.2028C26.3692 23.1181 26.4578 23.0037 26.5234 22.9487C26.5887 22.8938 26.6559 22.8045 26.6725 22.7506C26.6893 22.6964 26.7276 22.6248 26.7577 22.5912C27.0227 22.2961 27.1807 22.091 27.1807 22.0422C27.1807 21.993 27.3799 21.7358 27.6088 21.4899C27.6417 21.4545 27.6686 21.4036 27.6686 21.3772C27.6686 21.3506 27.7379 21.2515 27.8226 21.157C27.907 21.0622 28.03 20.9026 28.0956 20.8018C28.1614 20.7013 28.2843 20.5415 28.3688 20.447C28.4535 20.3525 28.5225 20.2442 28.5225 20.2064C28.5225 20.1688 28.6324 20.0235 28.7666 19.8837C28.9008 19.7439 29.0107 19.5951 29.0107 19.5529C29.0107 19.5104 29.076 19.4129 29.1556 19.3356C29.2354 19.2586 29.3532 19.1037 29.4176 18.9915C29.482 18.879 29.5837 18.7418 29.6437 18.6863C29.7034 18.631 29.7848 18.5125 29.8243 18.4229C29.8639 18.3335 29.9503 18.2054 30.0163 18.1382C30.0821 18.0712 30.189 17.9249 30.2538 17.8136C30.3187 17.7021 30.4311 17.5586 30.5039 17.4947C30.5791 17.4287 30.6544 17.3106 30.6785 17.2217C30.7037 17.1277 30.7671 17.0318 30.8362 16.9823C30.8999 16.937 30.9743 16.846 31.0016 16.78C31.0292 16.7137 31.0772 16.6498 31.1087 16.6377C31.1402 16.6258 31.1659 16.5873 31.1659 16.5525C31.1659 16.5178 31.2368 16.4121 31.3234 16.3176C31.41 16.2231 31.4946 16.0999 31.5117 16.0439C31.5285 15.9881 31.6178 15.8579 31.71 15.755C31.931 15.5084 32.0201 15.3866 32.0201 15.3315C32.0201 15.3068 32.0773 15.2328 32.147 15.167C32.2168 15.1012 32.2978 14.9927 32.3267 14.9255C32.3556 14.8586 32.4814 14.6908 32.6062 14.5531C32.7313 14.4155 32.8332 14.2732 32.8332 14.237C32.8332 14.2011 32.9028 14.094 32.9877 13.9995C33.0724 13.905 33.1618 13.7811 33.1863 13.7241C33.2105 13.6672 33.3216 13.5209 33.4329 13.3989C33.5442 13.2769 33.6489 13.1313 33.6657 13.0753C33.6825 13.0193 33.756 12.9096 33.8293 12.8312C33.9026 12.753 33.9854 12.6443 34.0134 12.5897C34.0734 12.4731 34.0785 12.4663 34.3123 12.1938C34.4117 12.078 34.5052 11.9273 34.5202 11.8587C34.5353 11.7903 34.599 11.6928 34.662 11.6422C34.7253 11.5915 34.8363 11.4523 34.9089 11.3328C34.9817 11.2131 35.0953 11.0575 35.1611 10.987C35.2272 10.9165 35.3137 10.7856 35.3536 10.6963C35.3935 10.6067 35.4752 10.4881 35.5351 10.4329C35.5949 10.3773 35.6966 10.2401 35.761 10.1279C35.8254 10.0154 35.9435 9.8605 36.023 9.78351C36.1028 9.70627 36.1679 9.60991 36.1679 9.56908C36.1679 9.52825 36.2389 9.41742 36.3252 9.32292C36.6077 9.014 36.6154 8.9818 36.6154 8.09983C36.6154 7.41642 36.6066 7.30582 36.551 7.28459C36.4741 7.25495 23.1568 7.25729 23.0835 7.28692ZM41.9378 7.31492C41.9714 7.35552 41.9808 9.62508 41.9733 15.8854L41.963 24.4009L40.2957 24.4123C39.3787 24.4184 38.5873 24.4135 38.5369 24.4014L38.4454 24.379V15.8621C38.4454 7.7937 38.4492 7.34315 38.5166 7.30372C38.6344 7.23512 41.8804 7.24586 41.9378 7.31492ZM36.5256 8.05293C36.5403 8.9587 36.5326 9.00233 36.3084 9.25479C36.2088 9.36702 36.1273 9.48578 36.1273 9.51915C36.1273 9.55251 36.0569 9.65704 35.971 9.75154C35.8849 9.84627 35.7668 10.0061 35.7085 10.1069C35.6502 10.2077 35.5375 10.3533 35.4581 10.4301C35.3788 10.507 35.314 10.6032 35.314 10.644C35.314 10.6851 35.2454 10.7957 35.1616 10.8904C34.9812 11.0936 34.8261 11.3097 34.8261 11.3573C34.8261 11.376 34.7535 11.4621 34.6651 11.5484C34.5766 11.6349 34.4936 11.7549 34.4803 11.8148C34.467 11.875 34.3923 11.9863 34.3139 12.0622C34.2355 12.138 34.124 12.2827 34.0657 12.3835C34.0073 12.4845 33.8893 12.6443 33.8032 12.7388C33.7171 12.8333 33.6466 12.9385 33.6466 12.9726C33.6466 13.0064 33.5824 13.1054 33.504 13.1924C33.4254 13.2792 33.2773 13.4754 33.1746 13.6285C33.0719 13.7815 32.9546 13.9302 32.914 13.9589C32.8731 13.9873 32.8269 14.069 32.8113 14.1399C32.7957 14.2111 32.7219 14.3348 32.6475 14.4146C32.4326 14.6446 32.3048 14.8114 32.3048 14.8618C32.3048 14.8875 32.2315 14.9846 32.1419 15.0777C32.0525 15.1708 31.9793 15.2678 31.9793 15.2933C31.9793 15.3395 31.9298 15.405 31.6491 15.7307C31.5681 15.8248 31.4881 15.9473 31.4711 16.0033C31.454 16.0593 31.3693 16.1822 31.2828 16.2767C31.1962 16.3715 31.1251 16.472 31.1246 16.5005C31.1241 16.529 31.0145 16.6769 30.8805 16.829C30.7468 16.9814 30.6374 17.1328 30.6374 17.1655C30.6374 17.1984 30.5674 17.3024 30.482 17.3969C30.3964 17.4917 30.2839 17.6421 30.2317 17.7315C30.1796 17.8211 30.0683 17.9674 29.9848 18.057C29.901 18.1464 29.8196 18.2654 29.8035 18.3214C29.7876 18.3771 29.7165 18.487 29.6458 18.5652C29.4999 18.7266 29.3359 18.9548 29.3359 18.9966C29.3359 19.012 29.2536 19.1126 29.153 19.2201C29.0524 19.3277 28.9701 19.4493 28.9701 19.4901C28.9701 19.5309 28.8688 19.6644 28.7449 19.7866C28.6044 19.9252 28.5022 20.068 28.4728 20.166C28.4467 20.2531 28.3744 20.3609 28.3107 20.408C28.2475 20.4547 28.1397 20.5926 28.0711 20.7141C28.0025 20.8357 27.8844 20.999 27.8086 21.0769C27.733 21.1549 27.659 21.2575 27.6443 21.3051C27.6296 21.3527 27.593 21.419 27.5629 21.4526C27.2978 21.7477 27.1401 21.9528 27.1401 22.0016C27.1401 22.0508 26.9408 22.308 26.7119 22.5541C26.679 22.5894 26.652 22.6402 26.652 22.6668C26.652 22.6934 26.5827 22.7923 26.4982 22.8871C26.4135 22.9816 26.291 23.1414 26.2259 23.242C26.1608 23.3425 26.0491 23.4891 25.9774 23.5672C25.906 23.6456 25.8339 23.7553 25.8176 23.8113C25.801 23.8673 25.7121 23.9982 25.62 24.1022C25.5278 24.2063 25.4284 24.3209 25.3995 24.357C25.3523 24.4151 25.1911 24.4212 23.9354 24.4116L22.5242 24.4009L22.5132 23.6995L22.502 22.9981L22.6605 22.8252C22.7475 22.73 22.8322 22.6066 22.8488 22.5506C22.8653 22.4946 22.9367 22.385 23.0074 22.3066C23.1535 22.1453 23.3173 21.9171 23.3173 21.8754C23.3173 21.86 23.3996 21.7594 23.5002 21.6516C23.601 21.5441 23.6834 21.4279 23.6834 21.3936C23.6834 21.3593 23.7762 21.2165 23.8899 21.0767C24.0035 20.9367 24.1297 20.7582 24.1706 20.6798C24.2114 20.6017 24.2933 20.4925 24.3525 20.4369C24.4118 20.3816 24.4935 20.2629 24.5341 20.1728C24.5749 20.0827 24.6654 19.9551 24.7354 19.8895C24.8054 19.8237 24.8626 19.754 24.8626 19.7344C24.8626 19.6912 25.0332 19.4565 25.217 19.2463C25.2905 19.1623 25.3507 19.0673 25.3507 19.0353C25.3507 19.0031 25.4237 18.8923 25.5133 18.7889C25.6027 18.6856 25.676 18.5813 25.676 18.557C25.676 18.533 25.777 18.3981 25.9004 18.2577C26.0239 18.117 26.1506 17.941 26.1818 17.8666C26.2131 17.7924 26.295 17.6778 26.364 17.612C26.4329 17.5465 26.4893 17.4602 26.4893 17.4203C26.4893 17.3806 26.567 17.2574 26.6622 17.1468C26.7572 17.0362 26.8806 16.8787 26.9366 16.7968C26.9926 16.7149 27.107 16.5656 27.1907 16.4653C27.2747 16.3652 27.3433 16.2504 27.3433 16.2105C27.3433 16.1706 27.3823 16.1029 27.4301 16.0604C27.5374 15.9645 27.8314 15.5721 27.8314 15.5245C27.8314 15.5054 27.8884 15.4361 27.9579 15.3703C28.0277 15.3047 28.1166 15.1778 28.1558 15.0882C28.1947 14.9988 28.2825 14.8658 28.3508 14.793C28.4189 14.72 28.5249 14.5737 28.5862 14.4678C28.6476 14.3616 28.7682 14.1976 28.8541 14.1031C28.9402 14.0083 29.0107 13.9029 29.0107 13.8683C29.0107 13.8338 29.0804 13.7281 29.1656 13.6336C29.2505 13.5389 29.3861 13.3609 29.4663 13.2379C29.5468 13.1149 29.6591 12.9707 29.7162 12.9175C29.7732 12.8646 29.8308 12.7712 29.8441 12.7103C29.8574 12.6494 29.9325 12.5374 30.0107 12.4616C30.0891 12.3858 30.2009 12.2411 30.2592 12.1403C30.3173 12.0395 30.4356 11.8795 30.5214 11.785C30.6075 11.6905 30.678 11.5864 30.678 11.5535C30.678 11.5208 30.7513 11.4096 30.8406 11.3062C30.9302 11.2028 31.0033 11.0997 31.0033 11.0768C31.0033 11.054 31.0695 10.9543 31.1505 10.8556C31.4163 10.5313 31.7095 10.5539 27.2187 10.5539H23.2405L23.1773 10.4634C23.1113 10.3692 23.077 7.39192 23.1411 7.32752C23.1563 7.31259 26.1711 7.30489 29.8411 7.31072L36.5137 7.32099L36.5256 8.05293ZM2.11334 7.52421C2.05314 7.58021 1.98921 7.62594 1.97148 7.62594C1.78085 7.62594 1.70852 13.9883 1.89612 14.2536C1.93532 14.3089 1.96728 14.395 1.96728 14.4451C1.96728 14.5408 2.3525 14.9458 2.44373 14.9458C2.4708 14.9458 2.55573 15.0009 2.63203 15.0679C2.70856 15.1351 2.80702 15.1899 2.85088 15.1899C2.89475 15.1899 2.96498 15.2279 3.00721 15.2746C3.04921 15.321 3.23097 15.4293 3.41087 15.5152C3.59076 15.601 3.77252 15.7093 3.81452 15.7557C3.85652 15.8021 4.04831 15.9202 4.24057 16.0177C4.43283 16.1155 4.64516 16.2252 4.71236 16.2618C4.77932 16.2982 4.86169 16.3276 4.89528 16.3267C4.92888 16.326 4.89832 16.3003 4.82739 16.2695C4.75669 16.2385 4.66056 16.1752 4.61389 16.1286C4.56746 16.0821 4.5019 16.0439 4.4683 16.0439C4.36703 16.0439 4.39853 15.906 4.57213 15.591C4.66266 15.4263 4.76555 15.2277 4.80032 15.1495C4.83532 15.0716 4.90392 14.9601 4.95292 14.9017C5.00191 14.8436 5.11111 14.6558 5.19581 14.4846C5.37804 14.1157 5.4954 14.0753 5.75089 14.2937C5.94992 14.4638 6.02645 14.447 5.83605 14.275C5.74926 14.1966 5.66573 14.1325 5.65033 14.1325C5.58196 14.1325 5.10061 13.877 5.03738 13.807C4.99888 13.7645 4.81852 13.6548 4.63653 13.5631C4.08658 13.2862 4.11668 13.3707 4.13091 12.1387C4.13744 11.5614 4.15751 11.0745 4.17547 11.0565C4.21421 11.018 4.51916 11.1732 4.72239 11.3347C4.80125 11.3974 4.89295 11.4485 4.92608 11.4485C4.95898 11.4485 5.05138 11.5057 5.13094 11.5757C5.21051 11.6454 5.33184 11.7271 5.40067 11.757C5.46926 11.7866 5.58056 11.8484 5.64753 11.8939C5.71472 11.9394 5.79802 11.9768 5.83279 11.977C5.86755 11.9772 5.95808 12.0414 6.03391 12.1196C6.10974 12.198 6.20494 12.2619 6.24507 12.2619C6.28544 12.2619 6.38694 12.323 6.47093 12.3979C6.55493 12.4726 6.77006 12.6028 6.94902 12.6872C7.12798 12.7715 7.3291 12.8914 7.3963 12.9535C7.46327 13.0155 7.56406 13.0799 7.61983 13.0965C7.67583 13.1133 7.78176 13.1793 7.85526 13.2435C7.92875 13.3074 8.01415 13.3599 8.04518 13.3599C8.07621 13.3599 8.15344 13.4031 8.21668 13.4561C8.27991 13.5088 8.37744 13.5662 8.4332 13.5834C8.4892 13.6007 8.5977 13.6695 8.67423 13.7365C8.79789 13.8443 9.03192 13.9698 9.10938 13.9698C9.12455 13.9698 9.10565 13.9351 9.06715 13.8926C9.02142 13.842 9.01232 13.806 9.04055 13.7885C9.06435 13.7738 9.08395 13.6999 9.08395 13.6243C9.08395 13.5487 9.10028 13.4766 9.12011 13.4645C9.13995 13.4521 9.16818 13.394 9.18311 13.3354C9.19781 13.2769 9.24961 13.1441 9.29837 13.0405C9.34691 12.9369 9.3812 12.8093 9.37444 12.757C9.36744 12.7047 9.38704 12.6315 9.4176 12.5941C9.44817 12.5568 9.5177 12.3891 9.57206 12.2213C9.70156 11.8209 9.72303 11.7931 9.83199 11.8841C9.87912 11.9233 9.86279 11.8951 9.79559 11.8209C9.72839 11.7469 9.53637 11.6202 9.36884 11.5395C9.20131 11.4588 9.00695 11.3321 8.93719 11.2579C8.86719 11.1839 8.77782 11.1233 8.73839 11.1233C8.69896 11.1233 8.59583 11.0591 8.50926 10.9809C8.4227 10.9025 8.32564 10.8386 8.29391 10.8386C8.26217 10.8386 8.18448 10.7952 8.12125 10.7425C8.05801 10.6895 7.96048 10.6323 7.90449 10.6151C7.84872 10.598 7.72552 10.5131 7.63103 10.4266C7.53653 10.34 7.432 10.2693 7.39864 10.2693C7.3655 10.2693 7.18818 10.1669 7.00455 10.042C6.82092 9.91697 6.62353 9.79681 6.5659 9.77511C6.50803 9.75341 6.40607 9.68271 6.33887 9.61831C6.27191 9.55368 6.16178 9.47692 6.09435 9.44798C6.02691 9.41882 5.81435 9.28956 5.62209 9.16099C5.42983 9.03243 5.24924 8.9272 5.22054 8.9272C5.19207 8.9272 5.08918 8.85394 4.99211 8.76457C4.89505 8.67521 4.79215 8.60194 4.76322 8.60194C4.73452 8.60194 4.64353 8.55621 4.56116 8.50021C4.4788 8.44422 4.39013 8.39849 4.364 8.39849C4.33787 8.39849 4.25107 8.34132 4.17151 8.27155C4.09194 8.20156 3.96175 8.11709 3.88218 8.08396C3.80262 8.05083 3.71466 7.99063 3.68642 7.9505C3.65819 7.91037 3.46173 7.79254 3.24987 7.68871C3.03778 7.58488 2.85345 7.48245 2.84038 7.46121C2.78345 7.36905 2.22884 7.41712 2.11334 7.52421ZM70.8772 10.0726C70.7652 10.0873 70.5251 10.1011 70.3434 10.1029C70.1147 10.1055 69.9983 10.1239 69.9659 10.1629C69.9402 10.1939 69.7974 10.2324 69.6483 10.2483C69.4994 10.2644 69.3398 10.302 69.2936 10.3323C69.2474 10.3624 69.1324 10.3995 69.0377 10.4147C68.9432 10.4296 68.8447 10.4671 68.8193 10.4979C68.7936 10.5287 68.7528 10.5539 68.7285 10.5539C68.6091 10.5539 67.9905 10.9088 67.7612 11.109C67.6184 11.2334 67.456 11.3652 67.4002 11.4019C67.27 11.487 67.0341 11.7329 67.0341 11.7831C67.0341 11.8043 66.9256 11.9345 66.7931 12.0727C66.57 12.3051 66.3022 12.7295 66.3022 12.8508C66.3022 12.8793 66.2758 12.9245 66.2436 12.9511C66.2116 12.9777 66.1736 13.0533 66.1591 13.1191C66.1447 13.1849 66.1057 13.2657 66.0728 13.2988C66.0397 13.3319 65.9988 13.446 65.9816 13.5526C65.9646 13.659 65.9298 13.7829 65.9043 13.8275C65.7046 14.1794 65.5735 15.8719 65.6932 16.5523C65.7574 16.9165 65.8234 17.1986 65.9008 17.4368C65.9426 17.5656 65.9767 17.7056 65.9767 17.7481C65.9767 17.9338 66.5847 19.0008 66.871 19.3177C67.4522 19.9607 67.9392 20.3716 68.2222 20.4579C68.2733 20.4736 68.3426 20.5102 68.3762 20.5394C68.4096 20.5683 68.4866 20.6047 68.5472 20.6199C68.6079 20.6348 68.6788 20.6728 68.7047 20.7043C68.7309 20.7356 68.7729 20.7612 68.7985 20.7612C68.8242 20.7612 68.9086 20.7953 68.9868 20.8371C69.0647 20.8788 69.1926 20.9262 69.2708 20.9421C69.4488 20.9785 69.6716 21.0454 69.7829 21.0958C69.8606 21.1308 70.0053 21.1511 70.8161 21.2405C70.9615 21.2566 71.1719 21.2552 71.2837 21.2377C71.3957 21.2202 71.6976 21.1829 71.9547 21.1549C72.2121 21.1266 72.4592 21.0832 72.5037 21.058C72.5485 21.0331 72.6948 20.9901 72.8292 20.9628C73.0541 20.9169 73.3526 20.8081 73.5 20.7183C73.5336 20.6978 73.6207 20.6544 73.6937 20.6215C73.7665 20.5886 73.924 20.4969 74.0437 20.4176C74.1631 20.3382 74.2728 20.2734 74.2873 20.2734C74.3624 20.2734 75.2824 19.3842 75.3148 19.2799C75.3293 19.2337 75.4091 19.1133 75.4922 19.0127C75.5752 18.9119 75.7295 18.6466 75.8352 18.4229C75.9406 18.1993 76.0624 17.9485 76.1056 17.8659C76.1487 17.7831 76.1842 17.6853 76.1842 17.6484C76.1842 17.6113 76.2101 17.5236 76.2421 17.4532C76.4672 16.9548 76.604 15.1521 76.4516 14.6931C76.4196 14.5972 76.3811 14.4092 76.366 14.275C76.3506 14.1406 76.3153 13.9943 76.2876 13.9495C76.2598 13.9047 76.225 13.8042 76.2103 13.726C76.1959 13.6476 76.1107 13.439 76.0214 13.2624C75.932 13.086 75.8587 12.9101 75.8587 12.8716C75.8587 12.8331 75.8254 12.7579 75.7848 12.7045C75.7439 12.6513 75.6443 12.4978 75.5633 12.3636C75.4019 12.0958 75.2528 11.9042 75.0659 11.7243C74.5241 11.2033 74.3192 11.0313 74.1361 10.9448C74.0201 10.8897 73.8918 10.8083 73.8514 10.7635C73.7681 10.6713 73.4198 10.4961 73.2357 10.4539C73.1687 10.4382 73.0588 10.4016 72.9919 10.3722C72.9247 10.3428 72.7823 10.2959 72.6755 10.2681C72.5688 10.2401 72.4715 10.2016 72.4596 10.1823C72.4477 10.1631 72.3154 10.1459 72.1659 10.1442C72.0163 10.1424 71.7109 10.1195 71.4871 10.0934C71.2634 10.067 70.989 10.0577 70.8772 10.0726ZM71.7996 10.1935C71.8374 10.2128 71.9916 10.2285 72.1425 10.2285C72.3271 10.2285 72.4713 10.2539 72.5824 10.3059C72.6734 10.3484 72.8145 10.3946 72.8962 10.4086C72.9779 10.4226 73.0905 10.4702 73.1465 10.5143C73.2028 10.5584 73.2847 10.5945 73.3288 10.5945C73.455 10.5945 73.7114 10.7152 73.8573 10.8433C73.9308 10.9079 74.0122 10.9606 74.0381 10.9606C74.1193 10.9606 74.4051 11.1751 74.6212 11.3977C74.735 11.5152 74.8477 11.6111 74.8715 11.6111C74.9161 11.6111 75.0997 11.8104 75.2082 11.9765C75.2416 12.0279 75.3057 12.1177 75.3505 12.176C75.5113 12.386 75.6149 12.544 75.6149 12.5792C75.6149 12.599 75.6501 12.6471 75.6931 12.6863C75.7362 12.7253 75.7834 12.8277 75.7981 12.9138C75.8125 13.0001 75.8506 13.0921 75.8823 13.1184C75.914 13.145 75.9402 13.1891 75.9402 13.2164C75.9402 13.244 75.9859 13.3525 76.0419 13.4577C76.0976 13.5629 76.1434 13.7015 76.1434 13.7659C76.1434 13.8301 76.1691 13.9085 76.2005 13.9397C76.2318 13.9712 76.2708 14.1234 76.2869 14.2783C76.3032 14.433 76.3401 14.6236 76.369 14.702C76.4418 14.8987 76.478 15.766 76.4259 16.0642C76.4026 16.1986 76.3664 16.4639 76.3457 16.654C76.2997 17.077 76.2743 17.1974 76.2008 17.3379C76.1695 17.3979 76.1438 17.504 76.1436 17.5735C76.1436 17.6433 76.1067 17.7469 76.0622 17.8036C76.0174 17.8605 75.9808 17.9273 75.9808 17.9518C75.9808 17.9763 75.9091 18.138 75.8214 18.3113C75.7337 18.4845 75.6513 18.6536 75.6385 18.6872C75.6254 18.7208 75.5507 18.8307 75.4726 18.9313C75.3944 19.0318 75.3137 19.1525 75.2931 19.1991C75.2126 19.3825 74.2541 20.2734 74.1372 20.2734C74.1069 20.2734 74.049 20.3098 74.0084 20.3546C73.9681 20.3994 73.9126 20.436 73.885 20.436C73.8577 20.436 73.8141 20.4617 73.7882 20.4929C73.7621 20.5242 73.6928 20.562 73.6337 20.5767C73.5749 20.5916 73.4818 20.6392 73.4268 20.6824C73.3715 20.7258 73.2947 20.7612 73.2555 20.7612C73.2165 20.7612 73.1636 20.7867 73.1379 20.8177C73.112 20.8487 72.9688 20.887 72.8178 20.9029C72.6664 20.9187 72.5131 20.9596 72.4741 20.9943C72.4225 21.0403 72.2531 21.0664 71.8437 21.0914C71.5359 21.1103 71.2351 21.146 71.1756 21.1705C71.1033 21.2006 71.0429 21.2022 70.9927 21.1754C70.9514 21.1535 70.6889 21.1227 70.4094 21.1068C70.1299 21.0909 69.8646 21.0557 69.8198 21.0282C69.775 21.0009 69.6196 20.9537 69.474 20.9236C69.2369 20.8744 68.9077 20.7472 68.7421 20.6409C68.7085 20.6194 68.5713 20.5541 68.4371 20.496C68.3029 20.4379 68.1657 20.3725 68.1321 20.3511C68.0985 20.3294 67.9903 20.2619 67.8913 20.201C67.5526 19.9922 66.5054 18.8624 66.5054 18.7054C66.5054 18.6786 66.4809 18.6361 66.451 18.6114C66.4212 18.5866 66.3745 18.4929 66.3477 18.403C66.3208 18.3134 66.2828 18.2399 66.263 18.2399C66.2434 18.2399 66.2154 18.1858 66.2009 18.1198C66.1864 18.0537 66.1419 17.9576 66.102 17.9063C66.0621 17.8549 66.017 17.718 66.0021 17.6018C65.9869 17.4856 65.9491 17.33 65.9183 17.256C65.7872 16.9424 65.6773 15.7263 65.7333 15.2102C65.8196 14.4164 65.8582 14.1619 65.9048 14.0779C65.9314 14.0296 65.9489 13.9747 65.9435 13.9561C65.9237 13.8872 66.1911 13.1516 66.2844 13.0183C66.3166 12.9726 66.3428 12.9054 66.3428 12.8692C66.3428 12.8328 66.3794 12.7701 66.4242 12.7295C66.4688 12.6891 66.5054 12.6205 66.5054 12.5773C66.5054 12.5342 66.6125 12.386 66.7436 12.2481C66.8745 12.1105 67.0304 11.9152 67.0899 11.8146C67.1501 11.7126 67.3069 11.5505 67.4436 11.4485C67.5785 11.348 67.7868 11.1828 67.9065 11.0813C68.0262 10.98 68.1671 10.8764 68.2196 10.8512C68.7873 10.5777 69.0286 10.4734 69.1487 10.4504C69.2271 10.4352 69.3186 10.3995 69.3522 10.3708C69.3856 10.3421 69.5321 10.3057 69.6775 10.2901C69.8228 10.2744 69.9812 10.2364 70.0298 10.2058C70.1712 10.116 71.629 10.1057 71.7996 10.1935ZM51.052 10.9567C50.9514 10.9742 50.8175 11.0096 50.7545 11.0355C50.6915 11.0614 50.5534 11.0827 50.4472 11.0827C50.3406 11.0827 50.219 11.1093 50.1754 11.1422C50.132 11.1751 50.0506 11.2026 49.9948 11.2035C49.9388 11.2042 49.7832 11.2595 49.649 11.3265C49.5149 11.3935 49.3742 11.4483 49.3364 11.4485C49.2986 11.4485 49.257 11.4656 49.2442 11.4863C49.2314 11.5071 49.1525 11.5463 49.069 11.5736C48.9854 11.6006 48.8692 11.6615 48.8109 11.7087C48.7099 11.7899 48.4182 11.9789 48.2227 12.0892C48.0909 12.1639 47.4735 12.7878 47.4735 12.8466C47.4735 12.8741 47.4089 12.9591 47.33 13.0356C47.2511 13.1121 47.1657 13.244 47.1403 13.3287C47.1151 13.4136 47.0698 13.5032 47.0397 13.5282C47.0099 13.5529 46.9854 13.6065 46.9854 13.6471C46.9854 13.6877 46.9655 13.7332 46.9413 13.7484C46.8454 13.8077 46.6585 14.3544 46.5369 14.9311C46.4725 15.2373 46.4261 16.1409 46.4599 16.4303C46.4781 16.5868 46.4942 16.8082 46.4954 16.9221C46.4963 17.0362 46.5232 17.1825 46.5544 17.2476C46.5859 17.3125 46.6247 17.448 46.6403 17.5486C46.6559 17.6491 46.6923 17.759 46.721 17.7926C46.7497 17.8262 46.7866 17.9359 46.8031 18.0367C46.8232 18.159 46.9049 18.3235 47.0505 18.5339C47.1702 18.7068 47.2798 18.8949 47.2941 18.9518C47.3083 19.0087 47.3529 19.0729 47.393 19.0944C47.4334 19.1161 47.5059 19.1982 47.5549 19.2771C47.6674 19.4593 48.0909 19.866 48.2596 19.9542C48.3305 19.9913 48.432 20.0683 48.4857 20.1254C48.5391 20.1828 48.7036 20.286 48.8515 20.3548C48.9994 20.4234 49.1478 20.4969 49.1814 20.5177C49.3018 20.5923 49.5996 20.7206 49.6523 20.7206C49.7015 20.7206 49.7925 20.7521 50.0151 20.8466C50.3635 20.9943 52.0413 21.1728 52.3141 21.0909C52.3969 21.0662 52.6181 21.0275 52.8057 21.0048C53.3552 20.9386 53.4672 20.9164 53.5519 20.8576C53.596 20.827 53.6751 20.8018 53.7273 20.8018C53.8083 20.8018 54.18 20.6411 54.3867 20.5165C54.4203 20.4964 54.5666 20.4232 54.712 20.3539C55.1021 20.1681 55.4801 19.8853 55.768 19.5638C55.8471 19.4756 56.0078 19.3002 56.1252 19.1739C56.2426 19.0475 56.3387 18.9135 56.3387 18.8757C56.3387 18.8382 56.412 18.728 56.5013 18.631C56.5909 18.5339 56.6642 18.432 56.6642 18.4044C56.6642 18.3767 56.6994 18.3046 56.7428 18.2437C56.786 18.183 56.8333 18.0794 56.8478 18.0138C56.8625 17.948 56.9003 17.8253 56.9318 17.7408C56.9635 17.6566 56.9894 17.5467 56.9897 17.497C56.9899 17.4471 57.0153 17.3575 57.0464 17.298C57.2165 16.972 57.251 15.0956 57.0902 14.9052C57.062 14.8716 57.0256 14.7267 57.0093 14.5832C56.9932 14.4395 56.9453 14.2657 56.9033 14.1969C56.8613 14.128 56.827 14.0499 56.8268 14.0235C56.8266 13.957 56.7599 13.8105 56.6635 13.6649C56.6189 13.5979 56.5531 13.4794 56.5172 13.4015C56.4162 13.1828 56.2199 12.9117 56.0053 12.6947C55.8979 12.586 55.81 12.4822 55.81 12.464C55.81 12.4458 55.754 12.3881 55.6854 12.3361C55.6168 12.2841 55.4843 12.1767 55.3905 12.0974C55.2969 12.0178 55.1674 11.9173 55.1025 11.8736C55.0377 11.83 54.9371 11.7621 54.8788 11.7227C54.8207 11.6832 54.7395 11.6394 54.6984 11.6254C54.6574 11.6114 54.4674 11.5201 54.2763 11.4226C54.085 11.3251 53.8801 11.2453 53.8211 11.2453C53.7619 11.2453 53.6769 11.2196 53.6321 11.1884C53.5876 11.1571 53.4415 11.1184 53.308 11.1027C53.1743 11.0869 53.0252 11.0488 52.9767 11.0183C52.8727 10.9529 51.3525 10.9042 51.052 10.9567ZM52.3535 11.0418C52.4093 11.0607 52.6377 11.0873 52.861 11.1011C53.0997 11.1158 53.3027 11.1496 53.3538 11.183C53.4014 11.2143 53.5533 11.2528 53.6914 11.2684C53.8374 11.285 53.9826 11.3284 54.0388 11.3727C54.0918 11.4145 54.162 11.4485 54.1944 11.4485C54.2271 11.4485 54.3004 11.4852 54.3571 11.5299C54.414 11.5747 54.4807 11.6111 54.5057 11.6111C54.5965 11.6111 55.0076 11.8711 55.2127 12.0582C55.3289 12.1639 55.4644 12.2633 55.5141 12.2789C55.5638 12.2946 55.6455 12.3657 55.6954 12.4371C55.7453 12.5085 55.8531 12.631 55.9348 12.7092C56.1014 12.8685 56.4607 13.3739 56.4607 13.4486C56.4607 13.4752 56.4941 13.5347 56.5349 13.5809C56.6101 13.6658 56.8268 14.1285 56.8268 14.2039C56.8268 14.2263 56.852 14.2657 56.883 14.2914C56.9143 14.3173 56.9521 14.4601 56.9677 14.6115C56.9834 14.762 57.023 14.9267 57.0557 14.978C57.1257 15.087 57.1465 16.7541 57.0797 16.8841C57.0585 16.9254 57.0291 17.0378 57.0144 17.134C56.9997 17.2303 56.953 17.4133 56.9108 17.5407C56.8684 17.668 56.8215 17.8444 56.8065 17.9329C56.7916 18.0211 56.7442 18.138 56.7013 18.1923C56.6586 18.2469 56.6234 18.3155 56.6234 18.3447C56.6234 18.3739 56.5501 18.4821 56.4607 18.5855C56.3714 18.6888 56.2981 18.8006 56.2981 18.8337C56.2981 18.8865 55.9731 19.2684 55.6546 19.5902C55.3895 19.8576 55.0736 20.107 54.8708 20.2087C54.75 20.2694 54.6235 20.3357 54.5902 20.356C54.5566 20.376 54.4068 20.4479 54.2572 20.5156C54.1079 20.583 53.9746 20.6558 53.9616 20.677C53.9483 20.6985 53.851 20.7281 53.7453 20.743C53.6396 20.758 53.5127 20.7953 53.4634 20.8263C53.4135 20.8576 53.1615 20.9008 52.8941 20.9239C52.6302 20.9465 52.3661 20.9848 52.3071 21.0086C52.1419 21.0755 50.7337 20.9717 50.4015 20.8681C50.3007 20.8366 50.1453 20.7981 50.0557 20.7825C49.9663 20.7666 49.8473 20.7295 49.7913 20.6999C49.7356 20.6702 49.6031 20.6238 49.4974 20.5968C49.3914 20.5699 49.285 20.5237 49.2608 20.4946C49.2363 20.4652 49.163 20.4295 49.0977 20.415C49.0323 20.4008 48.9684 20.3718 48.9553 20.3508C48.9425 20.3298 48.8643 20.2846 48.7822 20.2503C48.6998 20.216 48.5683 20.1275 48.4901 20.054C48.4117 19.9803 48.2824 19.8809 48.2026 19.8335C47.9555 19.6863 47.4621 19.1228 47.2878 18.7889C47.2294 18.6772 47.1508 18.5491 47.1132 18.5043C46.9457 18.305 46.8736 18.1653 46.8472 17.9889C46.8316 17.8846 46.7945 17.7791 46.7649 17.7546C46.7352 17.7299 46.6988 17.6141 46.6842 17.497C46.6692 17.3801 46.6272 17.1928 46.5906 17.081C46.5197 16.864 46.4889 15.6029 46.5474 15.3119C46.5633 15.2335 46.6025 15.0196 46.6349 14.8359C46.6671 14.6525 46.7051 14.4834 46.7196 14.4603C46.7338 14.4372 46.7723 14.3152 46.8052 14.1894C46.8379 14.0636 46.9011 13.9145 46.9455 13.8581C46.9898 13.8018 47.026 13.7237 47.026 13.6847C47.026 13.6457 47.0516 13.5925 47.0831 13.5666C47.1144 13.5405 47.1524 13.4703 47.1674 13.4103C47.1825 13.3506 47.2665 13.2234 47.3545 13.1282C47.4422 13.033 47.5141 12.9299 47.5141 12.8993C47.5141 12.7892 48.316 12.0687 48.5713 11.9495C48.6049 11.9336 48.733 11.8512 48.8559 11.7661C48.9791 11.6809 49.0979 11.6111 49.1203 11.6111C49.1889 11.6107 49.6024 11.4322 49.709 11.3568C49.7643 11.3179 49.862 11.2859 49.9264 11.2859C49.9906 11.2859 50.0916 11.2591 50.1511 11.2264C50.4521 11.0607 52.0191 10.9294 52.3535 11.0418ZM8.59116 15.1841C8.53797 15.2256 8.42574 15.2818 8.34174 15.3091C8.25797 15.3364 8.18938 15.374 8.18938 15.3924C8.18938 15.4368 7.94602 15.5205 7.89982 15.4921C7.88022 15.4797 7.86389 15.4876 7.86389 15.5096C7.86389 15.5315 7.91685 15.5611 7.98172 15.5753C8.04658 15.5896 8.13175 15.6367 8.17094 15.6801C8.21038 15.7237 8.27384 15.7592 8.31211 15.7592C8.35037 15.7592 8.42807 15.7958 8.485 15.8406C8.54193 15.8852 8.618 15.9218 8.65416 15.9218C8.69009 15.9218 8.79906 15.9951 8.89612 16.0847C8.99318 16.1741 9.11078 16.2473 9.15744 16.2473C9.20411 16.2473 9.29184 16.2931 9.35204 16.3488C9.41247 16.4048 9.49297 16.4506 9.531 16.4506C9.56903 16.4506 9.6423 16.4872 9.69386 16.532C9.74543 16.5765 9.80819 16.6132 9.83316 16.6132C9.85789 16.6132 9.94819 16.6605 10.0333 16.7186C10.1185 16.7765 10.1978 16.8143 10.2095 16.8026C10.244 16.7681 10.182 16.6946 10.1185 16.6946C10.0863 16.6946 10.0599 16.6776 10.0599 16.6566C10.0599 16.6358 10.0187 16.6057 9.96849 16.5898C9.91809 16.574 9.82032 16.5178 9.75103 16.465C9.68196 16.4123 9.59773 16.3694 9.56413 16.3694C9.53077 16.3694 9.4701 16.3327 9.4295 16.2879C9.38914 16.2431 9.32427 16.2065 9.28577 16.2065C9.24704 16.2065 9.14228 16.1335 9.05291 16.0439C8.96332 15.9545 8.85202 15.8812 8.80559 15.8812C8.75892 15.8812 8.70199 15.8462 8.67913 15.8033C8.65603 15.7604 8.5823 15.713 8.51487 15.6983C8.32611 15.6568 8.45327 15.2723 8.69453 15.1551C8.74096 15.1325 8.75846 15.1129 8.73349 15.1113C8.70853 15.1099 8.6446 15.1425 8.59116 15.1841ZM5.4597 16.7466C5.54416 16.8311 5.5052 16.8771 5.25064 16.9951C4.79495 17.2061 4.51193 17.3535 4.33414 17.4723C4.23777 17.5367 4.13791 17.5892 4.11224 17.5892C4.08634 17.5892 3.96361 17.6601 3.83972 17.7467C3.71559 17.833 3.56859 17.9177 3.5126 17.9343C3.4566 17.9511 3.38357 17.9879 3.34997 18.0162C3.31637 18.0444 3.2431 18.081 3.18734 18.0976C3.13134 18.1142 3.05808 18.1506 3.02448 18.179C2.99111 18.2073 2.91785 18.2439 2.86185 18.2602C2.80609 18.2768 2.73212 18.3148 2.69782 18.3447C2.66352 18.3748 2.52633 18.4574 2.39287 18.5283C2.2594 18.5993 2.14111 18.6695 2.12991 18.6844C2.11871 18.6993 1.87372 18.8284 1.58556 18.9712C1.2974 19.1137 1.01368 19.2703 0.955114 19.3186C0.896782 19.3671 0.803218 19.4182 0.74722 19.4318C0.514361 19.4892 0.131474 19.9511 0.0467763 20.2776C-0.0883192 20.7974 0.064743 21.1598 0.564293 21.5023C0.804619 21.667 1.76382 21.6584 1.76382 21.4916C1.76382 21.4752 2.02934 21.3292 2.3539 21.1665C2.67822 21.0039 2.96405 20.8462 2.98901 20.8161C3.01398 20.786 3.05434 20.7612 3.07861 20.7612C3.10288 20.7612 3.22537 20.6891 3.3509 20.6012C3.4762 20.5132 3.62833 20.4288 3.68852 20.4138C3.74872 20.3987 3.80682 20.3718 3.81779 20.3543C3.82852 20.3368 3.97925 20.2542 4.15284 20.1709C4.3262 20.0876 4.56163 19.9577 4.67572 19.8821C4.79005 19.8065 4.90182 19.7446 4.92445 19.7446C4.94708 19.7446 5.00938 19.7101 5.06305 19.6679C5.22661 19.5393 6.14008 19.0533 6.21824 19.0533C6.23131 19.0533 6.32604 18.9891 6.42847 18.911C6.53113 18.8326 6.63613 18.7686 6.66203 18.7686C6.68793 18.7686 6.82232 18.6949 6.96068 18.6051C7.09905 18.5153 7.25374 18.4229 7.30437 18.4C7.54936 18.2892 7.59206 18.2511 7.51787 18.2096C7.4691 18.1823 7.4565 18.144 7.47563 18.0831C7.50993 17.9753 7.5657 17.9707 7.59813 18.0729C7.62076 18.1443 7.72973 18.1975 7.85595 18.1986C7.97448 18.2 7.77196 17.9651 7.614 17.9175C7.52766 17.8918 7.4572 17.8568 7.4572 17.84C7.4572 17.8232 7.35524 17.7579 7.23064 17.6949C7.10581 17.6316 6.99405 17.5549 6.98238 17.5241C6.97048 17.4933 6.89162 17.4494 6.80715 17.4268C6.72269 17.4039 6.63076 17.358 6.60299 17.3246C6.57523 17.2912 6.52133 17.2639 6.48307 17.2639C6.44503 17.2639 6.3328 17.1909 6.23411 17.1018C6.13518 17.0126 6.01525 16.9394 5.96765 16.9391C5.92005 16.9389 5.85612 16.9025 5.82532 16.8584C5.79475 16.8143 5.68952 16.7609 5.59176 16.7396C5.46063 16.7112 5.4261 16.713 5.4597 16.7466Z" fill="#D932AC"/>
<path id="path4" fill-rule="evenodd" clip-rule="evenodd" d="M5.19578 14.4847C5.11109 14.6559 5.00189 14.8438 4.95289 14.9019C4.90389 14.9602 4.83529 15.0717 4.8003 15.1496C4.76553 15.2278 4.66263 15.4264 4.5721 15.5911C4.39968 15.9042 4.36701 16.044 4.46617 16.044C4.49861 16.044 4.57374 16.0892 4.63323 16.1443C4.69297 16.1996 4.7793 16.2568 4.82526 16.2712C4.87099 16.2859 4.95336 16.3508 5.00796 16.4157C5.11295 16.5405 5.43611 16.7092 5.658 16.7552C5.73103 16.7703 5.80943 16.8177 5.8323 16.8606C5.85539 16.9036 5.91466 16.939 5.96412 16.9392C6.01359 16.9395 6.13515 17.0127 6.23408 17.1019C6.33278 17.191 6.44501 17.264 6.48304 17.264C6.52131 17.264 6.5752 17.2913 6.60297 17.3247C6.63074 17.3581 6.72267 17.404 6.80713 17.4269C6.89159 17.4495 6.97046 17.4934 6.98236 17.5242C6.99402 17.555 7.10579 17.6318 7.23062 17.695C7.35521 17.758 7.45718 17.8233 7.45718 17.8401C7.45718 17.8569 7.52857 17.8922 7.61584 17.9183C7.7087 17.946 7.79573 18.0058 7.82606 18.0622C7.8557 18.1178 7.91473 18.1586 7.96489 18.1586C8.01272 18.1586 8.10489 18.2139 8.16952 18.2813C8.23415 18.3488 8.35665 18.4227 8.44158 18.4456C8.52651 18.4685 8.5958 18.5032 8.5958 18.5231C8.5958 18.5429 8.66347 18.5814 8.7463 18.6087C8.8289 18.636 8.95979 18.7198 9.03702 18.7949C9.11449 18.87 9.20408 18.9314 9.23628 18.9314C9.26872 18.9314 9.34361 18.9657 9.40288 19.0074C9.46238 19.0492 9.55664 19.0975 9.61264 19.1145C9.6684 19.1318 9.758 19.1799 9.8112 19.2216C9.86463 19.2632 9.93416 19.2975 9.96566 19.2975C10.0408 19.2975 10.2279 19.5 10.1978 19.5488C10.1626 19.6057 9.49598 20.0355 9.28715 20.1358C9.18659 20.1843 9.04122 20.2716 8.96423 20.3299C8.88723 20.3883 8.79553 20.4361 8.76077 20.4361C8.72577 20.4361 8.60677 20.5005 8.49594 20.5791C8.38511 20.658 8.19309 20.7688 8.06919 20.8255C7.94506 20.8822 7.79783 20.9718 7.74183 21.0248C7.6338 21.127 7.02436 21.4513 6.93873 21.4522C6.91073 21.4525 6.88786 21.4714 6.88786 21.4942C6.88786 21.5171 6.83746 21.5579 6.7761 21.585C6.7145 21.6121 6.57964 21.6942 6.47627 21.7672C6.37314 21.8403 6.27468 21.9 6.25765 21.9C6.19908 21.9 5.48487 22.3216 5.45244 22.375C5.43447 22.4047 5.39248 22.4287 5.35888 22.4287C5.16848 22.4287 4.83576 23.0563 4.86633 23.358C4.93982 24.0825 5.26508 24.3721 6.04579 24.4085L6.44431 24.4269L6.662 24.2822C6.7817 24.2029 6.92916 24.1191 6.98959 24.096C7.05002 24.0732 7.19562 23.9906 7.31298 23.9124C7.43058 23.8345 7.54397 23.7708 7.56544 23.7708C7.58667 23.7708 7.66717 23.7234 7.74417 23.6658C7.82116 23.6082 8.00736 23.4994 8.15785 23.4245C8.30835 23.3494 8.50037 23.2327 8.58484 23.1653C8.6693 23.0976 8.8205 23.0039 8.92129 22.957C9.02186 22.9098 9.19569 22.8188 9.30768 22.7544C9.41944 22.69 9.53844 22.6235 9.57181 22.6067C9.6054 22.5899 9.7153 22.5192 9.81587 22.4499C9.91666 22.3806 10.1087 22.2696 10.2428 22.2035C10.4916 22.0808 10.7254 21.9406 10.8297 21.8515C10.8616 21.8242 11.0173 21.7397 11.1755 21.6634C11.3334 21.5871 11.5511 21.462 11.6587 21.3853C11.7665 21.3085 12.0651 21.137 12.3225 21.0043C12.5798 20.8715 12.8372 20.7259 12.8946 20.6806C12.952 20.6356 13.0166 20.5987 13.0386 20.5987C13.0962 20.5987 13.4758 20.347 13.4758 20.3087C13.4758 20.2907 13.5281 20.2161 13.592 20.1426C13.7738 19.9333 13.8349 19.3269 13.7 19.0686C13.6664 19.0042 13.6389 18.9302 13.6389 18.9041C13.6387 18.878 13.5792 18.8199 13.5064 18.7748C13.4338 18.7298 13.3204 18.6369 13.2549 18.5683C13.1891 18.4995 13.1046 18.4433 13.067 18.4433C13.0297 18.4433 12.9525 18.4069 12.8955 18.3621C12.8386 18.3173 12.78 18.2806 12.7653 18.2806C12.6827 18.2806 12.2114 18.0167 12.1158 17.9169C12.0537 17.8523 11.9562 17.7876 11.8988 17.7732C11.8416 17.7587 11.7497 17.7116 11.6944 17.6682C11.6393 17.6248 11.5707 17.5893 11.5418 17.5893C11.5131 17.5893 11.4351 17.5436 11.3686 17.4878C11.3021 17.4318 11.2126 17.3861 11.1694 17.3861C11.126 17.3861 11.0476 17.3399 10.9946 17.2836C10.8983 17.1812 10.4554 16.9388 10.3646 16.9388C10.3383 16.9388 10.2634 16.8926 10.1985 16.8364C10.1334 16.7801 9.99786 16.694 9.8973 16.6453C9.7965 16.5965 9.6901 16.5328 9.66047 16.5036C9.63084 16.4745 9.57414 16.4507 9.53424 16.4507C9.49434 16.4507 9.41245 16.4049 9.35201 16.3489C9.29182 16.2932 9.20408 16.2474 9.15742 16.2474C9.11075 16.2474 8.99316 16.1742 8.8961 16.0848C8.79903 15.9952 8.69007 15.9219 8.65414 15.9219C8.61797 15.9219 8.54191 15.8853 8.48497 15.8408C8.42804 15.796 8.35035 15.7593 8.31208 15.7593C8.27382 15.7593 8.21035 15.7239 8.17092 15.6802C8.13172 15.6368 8.04656 15.5897 7.98169 15.5755C7.91683 15.5612 7.86386 15.5335 7.86386 15.5139C7.86386 15.4478 7.64547 15.2745 7.53091 15.2493C7.46861 15.2357 7.40748 15.208 7.39511 15.1881C7.38274 15.1681 7.29548 15.1172 7.20145 15.075C7.10719 15.033 6.99636 14.9602 6.95483 14.9135C6.91306 14.8666 6.75766 14.7721 6.60904 14.7035C6.46041 14.6349 6.27118 14.5423 6.18858 14.498C6.10575 14.4536 6.00519 14.4165 5.96482 14.4156C5.92446 14.4149 5.8281 14.3598 5.75086 14.2938C5.49537 14.0754 5.37801 14.1158 5.19578 14.4847Z" fill="#F7A60F"/>
</g>
</svg>
